<svg xmlns="http://www.w3.org/2000/svg" xmlns:xlink="http://www.w3.org/1999/xlink" width="551.37" height="254.962" viewBox="0 0 551.37 254.962"><defs><linearGradient id="a" x1="-0.047" y1="0.808" x2="1.048" y2="0.186" gradientUnits="objectBoundingBox"><stop offset="0" stop-color="#080807"/><stop offset="0.2" stop-color="#102112"/><stop offset="0.63" stop-color="#23602e"/><stop offset="1" stop-color="#369b48"/></linearGradient></defs><path d="M5.861,146.47l.424-5.16c.7,6.23.453,10.75,1.067,5.9-1.462-.74-.161-20.09-1.652-20.81l.292-3.4v2.1c.716-6.63-1.082-4.92-.862-13.46.1-3,.322-5,.5-3L5.32,102c0-1.93.292-1.46.263.46L5.466,92.33v.07c-.234-1.44-.6-4.71-.76-6.31.219-2.56.161,1.29.351.64l-.365-5.6c.395-2.28.76,2.36.716,6.22,1.462-5.22-.38-4.64.482-15.93l.19,5.29c.848-3.41.541-7.53,1.067-13.51-.278,1.42-1.33,12-1.7,5.89a44.884,44.884,0,0,0-.132-7.25c.526,0,.395-3.23.365-7.23l.7.27a39.584,39.584,0,0,0-.877-6.54c0-4.82.614-5.82,1.067-7,.117-7.73-.862,5.34-.994-3.81A171.972,171.972,0,0,0,5.144,18.9c.234-4.5.424.79.629-.83l-.555-4c0-1,.175-.66.263-.5-.219-3.36-.7-.27-.892-5.56a5.017,5.017,0,0,1-.175-2V4.69L4.706,3.6l2.617.15c1.374,0,2.924.09,4.385.12q4.388.094,8.771-.14c2.354.13-1.14.29-.424.48,13.156-.4,11.241-.29,22.015-.82l9.107.32c-6.739-.36,1.871-.79,9.414-1.14-2.383-.17-4.385-.33-5.847-.4l12.045-.26c1.462.08.234.25-1.74.45l2.207-.12c4.3.18,2.076.46-1.009.72l-4.385-.29c-2.924.29-5.745.61-5.131.89.775-.05,2.3-.1,3.947-.13-.775.08-1.272.15-.921.2,1.218,0,2.434-.063,3.64-.18L66.161,4l.658-.21,15.758.33c11.271-.54,21.065-1.33,38.943-1.55-4.385.39-.95.64-1.184,1.1-4.882-.49-13.858.21-23.126.11,4.839,0,3.772.28,2.544.35l16.533-.44c-.38.38,3.508.28,7.821.44-3.26-.75,12.323-.5,19-.73.424.25-1.184.51-9.4.45,9.063.56,11.695-.89,20.583-.41a31.322,31.322,0,0,0-3.874.1c4.678-.22,16.08,0,13.434.17h-2c13.3.09,40.493,0,42.481-.63a8.818,8.818,0,0,1-2.544.89l23.725-2.14c-2.09.55,5.95,1.85-5.087,2.16,3.158.08,7.09.17,13.756,0-2.149-.08-5.38-.8-2.427-.85,8.1.61,5.628.33,15.612.85-3.231-.12.365-1,5.482-1-.8.13.424.85-1.462.94l12.733-.85c-3.172.16-.556.72,2.3,1-1.316-.17,11.008,0,14.414-.07l-5.409-.2c14.384.13,14.209-1.18,28.476-1.14-1.725.18-4.269,1.07,3,1.18a257.113,257.113,0,0,1,27.351-2.41l2.412.25,9.809-.29c-6.037.65-22.951,2-32.16,2.55,3.174.239,6.369.326,9.56.26,2.851.24-4.385.36-6.768.37l18.77.15c-.833-.51,14.355-.51,13.639-.93l-20.378.53c-.833-.51,11.782-1.44,25.085-1.35,3.377.2-2.544.9-2.266,1.07,1.725-.17,12.63-.33,13.843-.21l-5.643.27c7.411.19,12.089-.67,20.977-.19,3.07,0,9.18.65,9.707.35-5.014-.57-5.993-2.35-2.646-2.78,1.067,0,16.08.55,19.618.83,5.058.45-7.587,1.08-3.274,1.46a35.834,35.834,0,0,1,4.137-.36c3.216.12-1.33.43,5.672.37,1.169-.52,14.253,0,3.3-.44,6.856-.14,7.309.11,15.335.09-2.558-.33,7.236-1.13,14.092-1.27-.395.13,1.14.3,1.886.37,14.048,0,21.591.28,34.689.29,1.213.12,7.528.27,4.839.49,1.886-.09,3.611-.26,7.66-.28,7.821.44-9,.07-3.055.6.512-.29,10.452-.41,16.212-.59-1.769-.46-13.3-.09-19,.09,0-.63,10-1.29,23.7-1.58,10.891-.16,4.722.41,6.607.32,8.566,0,13.025-.15,16.548-.34l5-.28c.921,0,1.535-.08,3.172-.1s3.07,0,4.868,0c0,1.77,0,4.49-.146,6-.585,4.61-1.169.21-1.593,1.23V2.33L542.6,2.18c-1.783-.05-3.523-.08-5.394-.08l7.455.19c-2.924.13-8.771.24-12.016.12,1.126.07,3.187.12,5.847.15h9.575V14.74c0,4.18-.088,8.23-.249,11.47.2,1.92.409,5.23.643,3.66V26.46c.468-3.14.658,6.42.877,2.1a129.926,129.926,0,0,1,.585,16.16L548.944,46a24.948,24.948,0,0,0,.2-6c.292,2.68-.921,9.88,0,12.82l.468-4.51c.336,4.59,1.052,10.28.848,16,.658-2.6,0-1.32.7-5.38-.965,3.52,0-14.61-.979-9,.906-4.16.38-7.21,1.155-12.65-.219.17-.424,1.93-.322-2.87,0-.22-.146-.73-.19-1.05v.01a14.015,14.015,0,0,1-.351,2.44c-.5-2.38-.482-10-.746-12.59.1-2.84.249,1.19.482-.36L549.763,19c.5-.38.819-7.56,1.111-.86v-6c.1-1.46.19-3.15.234-4.83V.39L546.43.45h-4.459l-2.982.09c-1.652.07-2.324.11-.512,0L524.634.75l-.117-.11c-13.654,0-28.1.56-43.709-.05-4.59.09-9.341.19-17.03.1L462.316.4C456.469.5,444.6.1,442.055.4,435.638-.38,413.4.24,403.024.1l-.395.38c-7.134,0-13.99.08-22.848.24l.541.33c-7.645.28-19.647-.24-31.736-.2a55.513,55.513,0,0,1,6.052,0c-14.443-.76-30.464.55-43.562,0q-3.958.151-7.923,0h-.541L298.08.63c1.374.08,2.675.15,3.815.18-2.514,0-6.33,0-10.072.13L290.23.58h-.862c-3.669-.13-2.924.17-.994.44-1.886.06-3.611.13-4.956.22-2.924-.58-9.823.2-13.887-.43-2.529.31-18.814.23-20.816.87-.117-.08-1.228-.12.789-.13-4.166-.07-8.332-.14-12.075,0l-1.769-.46-9.063.66c-5.54-.28-7.835-.44-2.339-.79-13.273.54-10.774.2-22.059.74l.555-.29c-4.035,0-10.481.4-12.923.16C180.768,1,145.143,1.49,121.988,1c4.488.87-10.774-.4-11.695.28-1.345-.2-4.576-.32-.819-.5C97.649,1,91.714.42,83.542,1,82.2.79,86.086.7,84.872.58a47.887,47.887,0,0,1-4.985.05C78.689.5,81.627.45,83.5.36c-12.089,0-13.3.67-14.18,1.27a88.794,88.794,0,0,0-13.595.15c-2.134-.2-5.687-.4,1.813-.47-4.21,0-25.772-.29-26.211.19q-3.506-.135-7.017,0H3.814l3.508.07a43.934,43.934,0,0,1-5.1.3V3.71l-.073,2c0,1.23-.088,2.64,0,4.3L2.06,9.86c-.731,11.79.175,5.14-.585,16.71L2,25.94C3.2,27,1.475,36.22,1.826,43l.307-2.43C2.513,44.2.583,50.8.452,54.5c-.1.8-.161-1.27-.234-2.4-.672,9.67.687,1.25.848,8.46C.7,61.89.116,58.85.013,63.7c-.307,2.41,1.2,14.07.5,20.68.278-1.46.57-2.9.775.44.19,5.18-1.038,13.87-.132,18.51-.073.65-.146.89-.219.92.234,3.92.38,12.75.877,15.11-1.8,3.64.877,24.38-.789,24.29l.088,12.06-.175-.31a68.874,68.874,0,0,0,.687,13.14c-.1,1.79-.263.49-.351.34a130.425,130.425,0,0,0,.57,21.83l-.541,1C1.607,194.25.437,208,1.08,219a2.675,2.675,0,0,1-.249-1.22c.322,6.22,0,13.66-.263,20.12-.117,3.23-.175,6.21-.088,8.67a22.892,22.892,0,0,0,.263,3.26l.234,1.66a8.939,8.939,0,0,0,.322,1.36l.073,1.55,6.885-.14,5.175-.15c-7.7,0-7.309-.19-5.467-.36s4.59-.34,1.389-.45c6.11-.08,15.773.41,8.289.48l-1.184-.07c-2.748.71,19.282.25,18.872.73,30.523,0,60.286.36,88.879.39l-3.289-.55h9.97c2.617.13,3.508.43-3.6.41a86.726,86.726,0,0,0,12.133-.38c13.931.22-5.438.64-1.169.65h5.847l-1.316-.06c4.542-.347,9.113-.494,13.683-.44,5.409.11,2.777.34,4.912.36h15.832l-5.029-.43c5.57-.21,11.826,0,6.023-.47,8.508.76,46.881.27,52.1.51,7.806-.32,15.51-.31,25.056-.27-2.383-.09-3.8-.58,4.385-.52-3.011,1,15.071.44,21.723,1.16-5.95-.48,23.389-.12,14.063-.8,6.871.08.424.38,5.628.61,16.343-.39,36.019.26,56.207.12.322-.13-3.07-.33,1.272-.53l10.657.66c3.991-.06,3.684-.76,10.964-.3-1.023-.11-2.558-.28.117-.32,39.572.64,80.854-.53,121.039.68-5.438-.25-1.813-.28,2.339-.29-2.7-.06,0-.33-.468-.5l16.826.49c3.07-.49,18.039,0,19.793-.51l-5.321.09c7.075-.56-9.926-1.24-8.888-2-7.923.63-20.919-.95-33.929,0-2.924-.15,2.456-.24.906-.4a133.452,133.452,0,0,1-14.618.23l.833-.07c-20.743.07-29.631-.23-52.947-.44l1.725.36c-5-.05-6.052-.16-8.406-.25-5.745.54,14.077,0,8.771.63-6.637-.73-35.3,0-39.806-.84-7.7,0,2.266.42-5.438.41l-2.047-.22-1.944.28c-5.043,0-7.6-.32-7.777-.51,1.213,0,3.479-.05,4.795-.07-6.549-.26-18.478.09-20.729,0l7.411.13c-21.021.21-46.705-.08-67.01.37l1.535.17c-15.51.31-12.411-.19-29.456,0h.629c-3.406.17-7.967.25-12.616.23,4.3-.2-8.1-.38-2.456-.6-16.826.33-8.318.26-19.428.89l-2.558-.28c-4.186.338-8.4.489-12.616.45,6.973-.23-5.423-.42,2.383-.73-17.849-.61-26.5.61-34.689-.28-8.2.77,15.452.43,10.861.59,3.845.25-6.768.58-12.367.5s-9.692-1-24.047-1c1.462,0,1.462-.05,2.924-.05-5.365-.2-10.511.26-17.1-.05-3.684.46-8.552,0-9.6.56l13.156-.13c-7.455.15-14.457.84-26.737.51.95-.12,4.6-.28,7.119-.37-3.6-.17-6.914.12-10.642-.06,1.067-.6,15.992-.13,23.974-.58-3.859-.25-15.115.43-11.1-.22-5.847.82-14.136-.1-23.842.53l.643-.36c-1.55.06-4.722.22-7.558.21l5.116-.46c-7.85.4-15.159-.34-22.7-.13,15.8,0,3.552.43,10.233.69-19.486.48-11.212-.93-33.008-.76,2.924,0,11.081.21,6.461.38-4.152-.07-9.633-.21-12.177-.4-14.457.08,2.222.37-3.932.59-4.926-.44-7.1.17-13.434.31v-.36c-16.46-.23-4.385.76-19.179.48l6.257-.51-7.733.13,1.608-.41c-3.625.13-6.169.19-8.581.21H7.322l-1.608-.05.073-.8c-.19.28-.424.36-.629-.14v-.69l-.117-1.17c0-.87-.1-1.93-.1-3.18.307-3.4.5,1.91.424-5.16a15.365,15.365,0,0,1,.263,6.42c.175.31.336,1.57.5,1.9.365-3.67.088-9.21.088-11.77a16.944,16.944,0,0,1-.132,2.77l-.731-10.25c.2-1.62.365-.34.512.93,0-2.08-.292-3.51-.336-6.56.424.79.862.6,1.067,4.92L5.934,219c.175-.65.512-5,.658-3.74.263-5.42-.833-13.29-.5-20.46,0-.38-.161-1.13-.219-2.65.1-6.75.629-12.73,0-20.72l.775-4.54c-.175-6.26-.965,6.14-1.257-4.29-.249-7.38.658-2.75.862-5.34a84,84,0,0,1-.541-16.84C5.861,142.62,5.773,144.38,5.861,146.47ZM5.48,69.24a25.045,25.045,0,0,1,.146,5.57C5.013,73.11,5.305,71.79,5.48,69.24Zm71.63-66a67.043,67.043,0,0,1-6.929-.05c2.061-.03,4.385-.02,6.973.07Zm473.427,4.2V7.3c.088-1.69.117-1.95.117-2.12.029.18-.015,1.08-.073,2.28Zm-.219,6.93c0,.7.146.65.219.36a21.755,21.755,0,0,1-.1-3.82,11.253,11.253,0,0,0-.073,3.48ZM162.466,254.71l-1.973-.1C164.937,254.51,163.738,254.6,162.466,254.71Z" transform="translate(0.029 0.002)" fill="url(#a)"/></svg>