<svg xmlns="http://www.w3.org/2000/svg" xmlns:xlink="http://www.w3.org/1999/xlink" width="259.18" height="496.569" viewBox="0 0 259.18 496.569"><defs><linearGradient id="a" x1="-0.336" y1="0.635" x2="1.417" y2="0.395" gradientUnits="objectBoundingBox"><stop offset="0" stop-color="#080807"/><stop offset="0.13" stop-color="#0b120b"/><stop offset="0.35" stop-color="#142d17"/><stop offset="0.63" stop-color="#21592b"/><stop offset="0.96" stop-color="#349546"/><stop offset="0.99" stop-color="#369b48"/></linearGradient><linearGradient id="b" x1="-1.667" y1="0.605" x2="2.667" y2="0.395" xlink:href="#a"/><linearGradient id="c" x1="-6.686" y1="0.622" x2="8.037" y2="0.378" xlink:href="#a"/><linearGradient id="d" x1="-4.428" y1="0.618" x2="4.892" y2="0.381" xlink:href="#a"/><linearGradient id="e" x1="-2.812" y1="0.634" x2="3.937" y2="0.374" xlink:href="#a"/><linearGradient id="f" x1="-2.036" y1="0.629" x2="3.107" y2="0.372" xlink:href="#a"/><linearGradient id="g" x1="-4.054" y1="0.619" x2="5.068" y2="0.389" xlink:href="#a"/><linearGradient id="h" x1="-1.471" y1="0.615" x2="2.958" y2="0.385" xlink:href="#a"/><linearGradient id="i" x1="-2.3" y1="0.624" x2="3.82" y2="0.357" xlink:href="#a"/><linearGradient id="j" x1="-3.607" y1="0.622" x2="5.211" y2="0.376" xlink:href="#a"/><linearGradient id="k" x1="-1.467" y1="0.639" x2="2.667" y2="0.358" xlink:href="#a"/><linearGradient id="l" x1="-3.333" y1="0.621" x2="3.988" y2="0.386" xlink:href="#a"/><linearGradient id="m" x1="-2.786" y1="0.612" x2="3.75" y2="0.388" xlink:href="#a"/><linearGradient id="n" x1="-1.074" y1="0.601" x2="2.074" y2="0.399" xlink:href="#a"/><linearGradient id="o" x1="-2.912" y1="0.626" x2="3.353" y2="0.375" xlink:href="#a"/><linearGradient id="p" x1="-1.882" y1="0.607" x2="2.882" y2="0.393" xlink:href="#a"/><linearGradient id="q" x1="-1.719" y1="0.645" x2="2.714" y2="0.344" xlink:href="#a"/><linearGradient id="r" x1="-38.984" y1="0.61" x2="39.85" y2="0.345" xlink:href="#a"/><linearGradient id="s" x1="-1.884" y1="0.609" x2="3.883" y2="0.348" xlink:href="#a"/><linearGradient id="t" x1="-0.442" y1="0.604" x2="1.814" y2="0.396" xlink:href="#a"/><linearGradient id="u" x1="-2.789" y1="0.628" x2="3.263" y2="0.387" xlink:href="#a"/><linearGradient id="v" x1="-2.625" y1="0.616" x2="3.5" y2="0.392" xlink:href="#a"/><linearGradient id="w" x1="-5.039" y1="0.625" x2="6.036" y2="0.378" xlink:href="#a"/><linearGradient id="x" x1="-1.667" y1="0.654" x2="3.222" y2="0.368" xlink:href="#a"/><linearGradient id="y" x1="-5.106" y1="0.619" x2="6.485" y2="0.38" xlink:href="#a"/><linearGradient id="z" x1="-3.546" y1="0.637" x2="4.521" y2="0.363" xlink:href="#a"/><linearGradient id="aa" x1="-1.444" y1="0.634" x2="2.598" y2="0.378" xlink:href="#a"/><linearGradient id="ab" x1="-2.539" y1="0.617" x2="3.077" y2="0.383" xlink:href="#a"/><linearGradient id="ac" x1="-1.241" y1="0.621" x2="1.744" y2="0.382" xlink:href="#a"/><linearGradient id="ad" x1="-4.505" y1="0.633" x2="4.798" y2="0.381" xlink:href="#a"/><linearGradient id="ae" x1="-1.5" y1="0.621" x2="3.147" y2="0.373" xlink:href="#a"/><linearGradient id="af" x1="-5.68" y1="0.624" x2="6.942" y2="0.365" xlink:href="#a"/><linearGradient id="ag" x1="-1.578" y1="0.649" x2="2.75" y2="0.364" xlink:href="#a"/><linearGradient id="ah" x1="-2.103" y1="0.62" x2="3.759" y2="0.38" xlink:href="#a"/><linearGradient id="ai" x1="-0.719" y1="0.595" x2="1.719" y2="0.405" xlink:href="#a"/><linearGradient id="aj" x1="-0.95" y1="0.636" x2="2" y2="0.393" xlink:href="#a"/><linearGradient id="ak" x1="-4.2" y1="0.612" x2="5.4" y2="0.388" xlink:href="#a"/><linearGradient id="al" x1="-0.2" y1="0.582" x2="1" y2="0.412" xlink:href="#a"/><linearGradient id="am" x1="0.142" y1="2.762" x2="0.858" y2="-1.644" xlink:href="#a"/><linearGradient id="an" x1="0.112" y1="2.19" x2="0.894" y2="-1.476" xlink:href="#a"/><linearGradient id="ao" x1="0.138" y1="4" x2="0.862" y2="-2.929" xlink:href="#a"/><linearGradient id="ap" x1="-0.611" y1="0.601" x2="2.611" y2="0.367" xlink:href="#a"/><linearGradient id="aq" x1="-4.127" y1="0.632" x2="5.41" y2="0.368" xlink:href="#a"/><linearGradient id="ar" x1="-1" y1="0.619" x2="2.077" y2="0.407" xlink:href="#a"/><linearGradient id="as" x1="-6.425" y1="0.626" x2="7.139" y2="0.377" xlink:href="#a"/><linearGradient id="at" x1="0.126" y1="17.436" x2="0.879" y2="-16.678" xlink:href="#a"/><linearGradient id="au" x1="-0.1" y1="0.565" x2="1.2" y2="0.413" xlink:href="#a"/><linearGradient id="av" x1="-1.667" y1="0.634" x2="2.667" y2="0.338" xlink:href="#a"/><linearGradient id="aw" x1="-4.286" y1="0.634" x2="5.286" y2="0.366" xlink:href="#a"/><linearGradient id="ax" x1="-14.514" y1="0.652" x2="13.884" y2="0.407" xlink:href="#a"/><linearGradient id="ay" x1="-54.669" y1="0.623" x2="52.002" y2="0.366" xlink:href="#a"/><linearGradient id="az" x1="-3.531" y1="0.627" x2="4.414" y2="0.396" xlink:href="#a"/><linearGradient id="ba" x1="0.115" y1="2.012" x2="0.89" y2="-0.225" xlink:href="#a"/><linearGradient id="bb" x1="-0.288" y1="0.733" x2="1.283" y2="0.261" xlink:href="#a"/><linearGradient id="bc" x1="0.151" y1="1.538" x2="0.856" y2="-0.231" xlink:href="#a"/><linearGradient id="bd" x1="-2.189" y1="0.577" x2="10.566" y2="0.423" xlink:href="#a"/><linearGradient id="be" x1="-2.666" y1="0.639" x2="3.583" y2="0.357" xlink:href="#a"/><linearGradient id="bf" x1="-2.857" y1="0.62" x2="4.429" y2="0.38" xlink:href="#a"/><linearGradient id="bg" x1="-3.19" y1="0.622" x2="4.052" y2="0.367" xlink:href="#a"/><linearGradient id="bh" x1="-2.435" y1="0.631" x2="3.326" y2="0.369" xlink:href="#a"/><linearGradient id="bi" x1="-5.441" y1="0.624" x2="5.936" y2="0.383" xlink:href="#a"/><linearGradient id="bj" x1="-1.406" y1="0.604" x2="2.42" y2="0.388" xlink:href="#a"/><linearGradient id="bk" x1="-1.32" y1="0.633" x2="1.56" y2="0.367" xlink:href="#a"/><linearGradient id="bl" x1="-6.283" y1="0.626" x2="7.783" y2="0.375" xlink:href="#a"/><linearGradient id="bm" x1="-16.678" y1="0.62" x2="18.194" y2="0.38" xlink:href="#a"/><linearGradient id="bn" x1="-8.429" y1="0.629" x2="9.286" y2="0.371" xlink:href="#a"/><linearGradient id="bo" x1="-2.995" y1="0.619" x2="4.284" y2="0.379" xlink:href="#a"/><linearGradient id="bp" x1="-0.645" y1="0.567" x2="1.645" y2="0.277" xlink:href="#a"/><linearGradient id="bq" x1="-2.496" y1="0.613" x2="3.287" y2="0.382" xlink:href="#a"/><linearGradient id="br" x1="-0.235" y1="0.724" x2="0.608" y2="0.395" xlink:href="#a"/><linearGradient id="bs" x1="0.13" y1="2.871" x2="0.889" y2="-1.922" xlink:href="#a"/><linearGradient id="bt" x1="0.109" y1="3.5" x2="0.891" y2="-2.625" xlink:href="#a"/><linearGradient id="bu" x1="0.132" y1="3.529" x2="0.864" y2="-2.118" xlink:href="#a"/><linearGradient id="bv" x1="0.131" y1="1.312" x2="0.874" y2="-1.219" xlink:href="#a"/><linearGradient id="bw" x1="-2.124" y1="0.625" x2="2.747" y2="0.355" xlink:href="#a"/><linearGradient id="bx" x1="-0.621" y1="0.69" x2="1.621" y2="0.31" xlink:href="#a"/><linearGradient id="by" x1="-4.111" y1="0.62" x2="5.247" y2="0.36" xlink:href="#a"/></defs><g transform="translate(-0.041 -0.001)"><g transform="translate(0.041 0.001)"><path d="M119.451,228.28c0,2.158.41,1.4.5,1.726C119.84,226.316,119.322,228.28,119.451,228.28Z" transform="translate(138.197 263.714)" fill="url(#a)"/><path d="M119.1,213.744l.194.647-.453-5.352Z" transform="translate(137.514 242.041)" fill="url(#b)"/><path d="M119.188,195.54c-.777,3.194,0,12.257-.151,18.277l-.173.993.6,2.719C119.318,210.214,118.908,200.7,119.188,195.54Z" transform="translate(137.51 226.409)" fill="url(#c)"/><path d="M119.853,187.467c-.3,1.1-.259-3.906,0,4.208V190.9C119.831,190.164,119.831,189.236,119.853,187.467Z" transform="translate(138.443 216.443)" fill="url(#d)"/><path d="M119.73,189.072C119.73,192.633,119.989,186.742,119.73,189.072Z" transform="translate(138.544 218.268)" fill="url(#e)"/><path d="M119.65,182.38l.259,4.683c.194-.971.216-5.157.345-3.6C120.125,178.647,119.931,179.64,119.65,182.38Z" transform="translate(138.452 208.517)" fill="url(#f)"/><path d="M119.39,179.08v2.438A7.035,7.035,0,0,0,119.39,179.08Z" transform="translate(138.15 207.351)" fill="url(#g)"/><path d="M119.8,185.367l-.237-5.157a3.237,3.237,0,0,0,0,2.374A22.75,22.75,0,0,0,119.8,185.367Z" transform="translate(138.087 208.659)" fill="url(#h)"/><path d="M119.789,184c-.173,2.654-.281,6.042-.539,1.338C119.358,194.207,119.9,192.89,119.789,184Z" transform="translate(137.988 213.047)" fill="url(#i)"/><path d="M118.727,194.744l-.237,3.517.259,3.043C118.619,199.771,118.965,194.528,118.727,194.744Z" transform="translate(137.108 225.479)" fill="url(#j)"/><path d="M120.187,167.605c-.173-.281-.453,1.6-.647,1.942l.173,3.474A32.949,32.949,0,0,1,120.187,167.605Z" transform="translate(138.324 194.031)" fill="url(#k)"/><path d="M119.695,171.281l-.281-5.2C119.371,170.719,119.5,171.561,119.695,171.281Z" transform="translate(138.169 192.298)" fill="url(#l)"/><path d="M118.99,179.592l.6,8.524-.6-10.185Z" transform="translate(137.687 206.019)" fill="url(#m)"/><path d="M119.944,159.637l.388,2.956-.583-5.244Z" transform="translate(138.567 182.19)" fill="url(#n)"/><path d="M119.81,157.7c.324,2.158.539-2.978.734-.669,0-3.582-.324-6.625-.561-9.365a90.336,90.336,0,0,1-.173,10.034Z" transform="translate(138.637 170.982)" fill="url(#o)"/><path d="M119.72,145.53c0,1.467.216,2.978.367,4.618C120,148.7,119.893,147.062,119.72,145.53Z" transform="translate(138.533 168.504)" fill="url(#p)"/><path d="M119.44,164.188a15.493,15.493,0,0,0,.475-4.078l-.453,2.028Z" transform="translate(138.208 185.386)" fill="url(#q)"/><path d="M119.44,163.4h0V159.08C119.483,159.468,119.462,160.828,119.44,163.4Z" transform="translate(138.208 184.193)" fill="url(#r)"/><path d="M119.46,162.5V162a.842.842,0,0,0,0,.5Z" transform="translate(138.188 187.574)" fill="url(#s)"/><path d="M119.688,175.516c-.259-3.043-.539-9.387-.928-3.237C119.062,174.458,119.278,170.941,119.688,175.516Z" transform="translate(137.421 196.479)" fill="url(#t)"/><path d="M119.17,163.4v5.524c.108-.108.281-1.122.41.388Z" transform="translate(137.896 189.195)" fill="url(#u)"/><path d="M119.11,162.15l.129,2.7.043-2.028Z" transform="translate(137.826 187.748)" fill="url(#v)"/><path d="M119.728,154.171c-.194-2.4-.216-4.985-.237-7.941,0,3.151-.151,6.474-.151,9.516C119.491,156.178,119.75,157.537,119.728,154.171Z" transform="translate(138.093 169.314)" fill="url(#w)"/><path d="M119.486,155.608v-.518C119.421,155.414,119.421,155.673,119.486,155.608Z" transform="translate(138.205 179.573)" fill="url(#x)"/><path d="M119.41,132.82v0Z" transform="translate(138.174 153.787)" fill="#fff"/><path d="M119.319,151.223a31.68,31.68,0,0,0,.173,5.136V150.7C119.341,150.511,119.3,150.467,119.319,151.223Z" transform="translate(138.027 174.356)" fill="url(#y)"/><path d="M119.747,141.79c0,1.23-.151,2.633-.237,4.1a25.889,25.889,0,0,0,.237-4.1Z" transform="translate(138.289 164.173)" fill="url(#z)"/><path d="M119.51,154.851v.345C119.639,154.42,119.575,154.528,119.51,154.851Z" transform="translate(138.289 179.013)" fill="url(#aa)"/><path d="M119.661,156.411a25.9,25.9,0,0,0-.281-3.151,32.141,32.141,0,0,0,.151,3.949C119.574,157.015,119.617,156.626,119.661,156.411Z" transform="translate(138.139 177.454)" fill="url(#ab)"/><path d="M118,132a43.157,43.157,0,0,1,.367,12.019c.3,5.287,1.726,1.834,2.5-2.784-.194-.173-.367-.173-.6-5.611-.237,1.9-.561,12.084-.949,7.488a44.711,44.711,0,0,1,.388-9.408c-.539,2.978-.777-9.193-1.554-7.617l.259,6.323C118.388,132.538,118.194,130.251,118,132Z" transform="translate(136.541 145.826)" fill="url(#ac)"/><path d="M119.35,143.4v2.158a77.446,77.446,0,0,1,.583-7.747,18.452,18.452,0,0,0-.5-4.769v11.027Z" transform="translate(138.104 154.042)" fill="url(#ad)"/><path d="M120,148.936c-.453-1.748-.647-7.143-1.165-3.841a64.519,64.519,0,0,0,.6,8.632c-.129-10.617.259,3.043.518-4.618,0,2.158.108,3.949.129,5.718,0-1.9.129-3.733.216-5.481v.237h0v-.216a1.144,1.144,0,0,1-.173-.475c0-3.086.108-.5.173.475v.129h0l-.259-10.617C119.931,141.124,119.952,143.929,120,148.936Z" transform="translate(137.502 160.804)" fill="url(#ae)"/><path d="M118.29,168.752v-.345C118.355,167.717,118.312,167.458,118.29,168.752Z" transform="translate(136.877 194.33)" fill="url(#af)"/><path d="M118.513,169.078a22.783,22.783,0,0,1,.216,3.927c-.151,2.158-.237,0-.388,0,.129,1.51.345,5.308.561.561v-.755a65.73,65.73,0,0,1,.82-9.042,24.8,24.8,0,0,0-1.208,5.308Z" transform="translate(136.935 189.623)" fill="url(#ag)"/><path d="M119.176,159.487l-.216-8.847-.41,4.51.237-.216C118.7,160.048,119,158.862,119.176,159.487Z" transform="translate(137.178 174.421)" fill="url(#ah)"/><path d="M119.636,134.469l.475,1.165-.691-5.114Z" transform="translate(138.185 151.124)" fill="url(#ai)"/><path d="M119.49,128.421l.432.41-.259-3.021Z" transform="translate(138.266 145.671)" fill="url(#aj)"/><path d="M2.59,60.12,2.7,62.731C2.676,61.5,2.633,60.7,2.59,60.12Z" transform="translate(2.91 69.61)" fill="url(#ak)"/><path d="M2.716,51.655,2.5,51.18C2.629,52.065,2.716,52.41,2.716,51.655Z" transform="translate(2.806 59.258)" fill="url(#al)"/><path d="M116.815.711c-3.755-.388-8.07-1.014-7.553-.539l1.165.475C113.061.56,115.219.6,116.815.711Z" transform="translate(126.375 -0.001)" fill="url(#am)"/><path d="M23.08,1.8l1.122.129,2.546-.453Z" transform="translate(26.635 1.712)" fill="url(#an)"/><path d="M24.536,2.682l-5.006-.3C20.652,2.488,22.271,2.6,24.536,2.682Z" transform="translate(22.525 2.754)" fill="url(#ao)"/><path d="M2.82,107.829l.388,3.043C3.208,106.146,3.057,108.3,2.82,107.829Z" transform="translate(3.177 124.745)" fill="url(#ap)"/><path d="M119.47,76.8c.173-3.258.259-5.869.281-8.157a36.34,36.34,0,0,0-.28,8.157Z" transform="translate(138.114 79.475)" fill="url(#aq)"/><path d="M.29,56.726c0,1.6.173,2.266.281,2.158C.484,57.4.4,56.381.29,56.726Z" transform="translate(0.247 65.602)" fill="url(#ar)"/><path d="M119.6,64.26a9.631,9.631,0,0,1-.108,1.748c0,2.374.129,4.79.108,7.7a57.547,57.547,0,0,0,0-9.452Z" transform="translate(138.266 74.403)" fill="url(#as)"/><path d="M53.23,227.55h0Z" transform="translate(61.545 263.473)" fill="#fff"/><path d="M105.977,229.74H101.51A41.235,41.235,0,0,0,105.977,229.74Z" transform="translate(117.448 266.009)" fill="url(#at)"/><path d="M119.58,105.57Z" transform="translate(138.37 122.235)" fill="#fff"/><path d="M118.836,111.6c0-.518,0-.928-.216-.993a2.978,2.978,0,0,1,.216.993Z" transform="translate(137.259 128.071)" fill="url(#au)"/><path d="M118.225,53.1V52.91C118.138,53.622,118.138,53.493,118.225,53.1Z" transform="translate(136.726 61.261)" fill="url(#av)"/><path d="M119.48,108.949a23.244,23.244,0,0,1,.151-3.129C119.609,106.338,119.566,107.287,119.48,108.949Z" transform="translate(138.255 122.525)" fill="url(#aw)"/><path d="M119.59,107v2.158C119.612,109.525,119.655,109.158,119.59,107Z" transform="translate(138.382 123.891)" fill="url(#ax)"/><path d="M119.57,104v3.409C119.592,106.676,119.592,105.662,119.57,104Z" transform="translate(138.359 120.417)" fill="url(#ay)"/><path d="M2.06,188v.518C2.211,191,2.168,189.921,2.06,188Z" transform="translate(2.297 217.679)" fill="url(#az)"/><path d="M83.32,2.58Z" transform="translate(96.386 2.985)" fill="#fff"/><path d="M79.26,3.666a38.583,38.583,0,0,1,8.632-.388L85,1.94Z" transform="translate(91.685 2.244)" fill="url(#ba)"/><path d="M5.671,174.614l.432-6.172c.691,7.445.453,12.818,1.036,7.035-1.467-.863-.151-23.931-1.618-24.772l.3-4.057v2.5c.712-7.9-1.057-5.869-.842-16.033.108-3.539.324-6.02.5-3.6l-.367-7.9c0-2.287.281-1.726.259.561l-.129-12.041h0c-.216-1.7-.583-5.61-.734-7.509.216-3.064.173,1.532.345.755l-.237-6.452c.367-2.719.734,2.805.691,7.423,1.446-6.236-.367-5.546.475-18.968l.194,6.279c.82-4.057.518-8.955,1.036-16.076C6.75,77.273,5.714,89.831,5.347,82.6a63.377,63.377,0,0,0-.129-8.632c.518,0,.388-3.841.367-8.632l.691.324a61.736,61.736,0,0,0-.863-7.79,21.3,21.3,0,0,1,1.014-8.416c0-9.193-.863,6.344-.993-4.532.259-7.66,0-12.947-.432-22.183.237-5.352.41.928.626-.993L5.11,17.089c0-1.165.173-.777.259-.583-.194-4.014-.691-.345-.863-6.625a6.474,6.474,0,0,1-.237-2.374,24.016,24.016,0,0,1,.237-2.7l2.158.216h3.28a54.078,54.078,0,0,0,7.1-.022c1.921.194-.928.41-.345.691,10.789-.583,9.171-.41,17.932-1.187l7.466.453c-5.481-.518,1.532-1.122,7.66-1.618-1.942-.259-3.6-.475-4.726-.583l9.818-.367c1.187.108.194.345-1.424.626l1.813-.151c3.5.237,1.683.647-.842,1.036l-3.517-.432c-2.417.432-4.683.885-4.186,1.295.647,0,1.856-.151,3.215-.194-.626,0-1.036.216-.755.281A15.8,15.8,0,0,0,52.13,4.6l2.158.777.539-.3,12.818.475c9.193-.777,17.263-1.9,31.721-2.158-3.6.561-.777.928-.971,1.575-3.97-.691-11.264.3-18.817.173,3.927,0,3.064.388,2.158.5L95.2,4.984c-.3.561,2.848.41,6.366.647C98.913,4.552,111.6,4.9,117.082,4.574c.345.367-.971.734-7.66.647,7.38.82,9.538-1.273,16.767-.583a14.307,14.307,0,0,0-3.237.086c3.8-.324,13.12,0,10.94.237h-1.64c10.789.129,32.994,0,34.526-.906A5.151,5.151,0,0,1,164.62,5.35l19.421-3.086c-1.7.8,4.834,2.676-4.143,3.107a111.522,111.522,0,0,0,11.2,0c-1.748-.129-4.316-1.144-1.964-1.23,6.474.885,4.575.475,12.71,1.23-2.633-.173.3-1.4,4.467-1.359-.647.173.345,1.208-1.187,1.338L215.74,4.142c-2.589.216-.453,1.036,1.856,1.359-1.079-.237,8.977,0,11.739,0l-4.316-.281c11.717.173,11.588-1.7,23.2-1.64-1.4.237-3.474,1.532,2.438,1.683a8.351,8.351,0,0,0,1.316-.41q1.071-.41,2.179-.712a15.82,15.82,0,0,1,.734,2.719c.237,1.252.5,2.719.712,4.316a94.193,94.193,0,0,1,.993,9.84l-.345,1.964.388,7.9c-.453-2.46-1.187-7.143-1.9-12.127-.324-2.525-.669-5.093-.993-7.531-.151-1.208-.3-2.374-.432-3.5a14.308,14.308,0,0,0-.345-1.64,19.119,19.119,0,0,0-.388,6.344c-.151,1.165-.281.259-.367-1.165L252.1,8.933v-1.6L251.885,22.2c.734-.669.734,11.7,1.338,11.113l-.8-16.724c.734-.669,2.158,9.6,1.921,20.435-.281,2.762-1.273-2.05-1.532-1.834a96.012,96.012,0,0,1,.3,11.286l-.388-4.6c-.259,6.02.971,9.84.281,17.069,0,2.5-.928,7.466-.518,7.9.842-4.078,3.388-4.855,4.014-2.158,0,.885-.777,13.141-1.187,15.99-.647,4.122-1.554-6.172-2.158-2.676a15.343,15.343,0,0,1,.518,3.388c-.173,2.611-.6-1.1-.518,4.618.734.949,0,11.609.626,2.7.216,5.567-.151,5.934-.129,12.473.475-2.158,1.618,5.891,1.834,11.48-.194-.324-.432.928-.539,1.532,0,11.458-.41,17.587-.41,28.268-.173.971-.388,6.128-.712,3.927a52.372,52.372,0,0,1,.388,6.236c-.626,6.474,0-7.337-.863-2.482a122.053,122.053,0,0,1,.863,13.206c.669-1.446.129-10.789-.129-15.537.906,0,1.856,8.157,2.287,19.421.216,8.869-.6,3.841-.475,5.373-.151,16.659,1.6,14.177.949,28.052-.583,5.481-1.165.259-1.575,1.467-.237-7.229.367-11.091.345-15.968l-.281,6.02a85.178,85.178,0,0,1-.173-9.754c-.518,4.6-.108,28.052-.583,41,.194,2.287.388,6.215.626,4.316v-4.078c.475-3.733.647,7.66.885,2.5a189.012,189.012,0,0,1,.583,19.248l-.669,1.446a37.416,37.416,0,0,0,.194-7.186c.281,3.215-.906,11.782,0,15.278l.475-5.373c.324,5.459,1.036,12.235.82,19.032.647-3.086,0-1.554.691-6.474-.949,4.186,0-17.414-.971-10.789.906-4.963.388-8.632,1.144-15.105-.216.194-.41,2.287-.3-3.409,0-.259-.151-.863-.194-1.252h0v.129a21.23,21.23,0,0,1-.345,2.913c-.5-2.848-.475-11.911-.734-15,0-3.388.259,1.424.475-.432l-.518-4.553c.5-.453.82-9,1.1-1.036v-7.164c.259-4.316.367-10.056.173-13.638s-.539-8.632-.151-5.61l-.3-11.264h0c0-11.113-.8-22.9,0-35.583-.129-3.755-.281-7.617-.129-13.875l.41-1.23c-.151-4.79.41-14.415,0-16.486,1.122-5.179.259-23.327.453-31.764l-.561-.324c0-5.826,0-11.394-.324-18.622l-.5.453c-.388-6.236.345-16.011.3-25.895a27.573,27.573,0,0,1,0,4.92,134.1,134.1,0,0,0,.129-17.436c0-2.935-.194-5.826-.3-8.632V7.142c0-2.158,0-4.122.108-6.236h-6.992a21.141,21.141,0,0,1-2.913-.129h-.432L243.232.538c1.122,0,2.158.216,3.107.259-2.158,0-5.157,0-8.2.194L236.844.474h-.712c-2.978-.173-2.4.259-.8.647a32.859,32.859,0,0,0-4.035.324c-2.438-.842-8.006.281-11.243-.626-2.158.432-15.343.324-16.961,1.252,0-.129-.993-.173.647-.194a92.793,92.793,0,0,0-9.84,0l-1.511-.6-7.423.885c-4.51-.388-6.366-.626-1.9-1.144-10.789.777-8.761.3-17.954,1.079l.453-.432c-3.3,0-8.632.583-10.53.237-7.337-.82-36.4-.108-55.22-.863,3.712,1.252-8.783-.561-9.516.41-1.1-.3-3.733-.475-.691-.734-9.624.3-14.458-.475-21.1.345-1.1-.281,2.158-.432,1.079-.6a22.7,22.7,0,0,1-4.057,0c-.993-.086,1.316-.173,2.935-.3-9.84,0-10.789.971-11.545,1.834a40.806,40.806,0,0,0-11.07.216c-1.748-.216-4.639-.583,1.575-.691-3.453,0-21.018-.41-21.363.281a41.906,41.906,0,0,0-5.718,0l-8.114-.022H3.319l2.848.216a18.968,18.968,0,0,1-4.1.432c0,1.4,0,2.87,0,4.683v5.028c-.82,13.918.043,5.956-.626,19.766l.518-.755c1.122,1.295-.647,12.235-.216,20.262l.367-2.892C2.5,52.824.6,60.743.47,65.145.363,66.095.319,63.635.233,62.3c-.647,11.5.691,1.489.842,10.056-.367,1.6-.928-2.028-.993,3.733-.3,2.892,1.187,16.767.475,24.643.194-1.64.475-3.474.691.518.108,6.107-1.057,16.508-.173,22.032,0,.777-.151,1.057-.216,1.1.216,4.661.367,15.105.863,17.975-1.791,4.316.863,29.023-.777,28.937v14.35l-.173-.367a96.521,96.521,0,0,0,.691,15.645c-.129,2.158-.281.583-.367.41a188.662,188.662,0,0,0,.561,25.895L1.2,228.561c.324,3.064-.842,19.421-.216,32.562a5.438,5.438,0,0,1-.237-1.446c.626,14.8-1.467,35.432.475,40.849L1.7,310.3c.151-12.645.842,1.877,1.165-3.323,0,4.963-.583,12.839-.691,6.733l.108-.949c-1.014-2.158-.367,15.709-1.057,15.364,0,24.859-.518,49.113-.561,72.4l.8-2.676v8.114c-.194,2.158-.626,2.87-.583-2.935a39.942,39.942,0,0,0,.539,9.883c-.324,11.35-.928-4.316-.928-.949v3.668a76.085,76.085,0,0,1,.626,11.135c-.173,4.316-.5,2.266-.518,3.992a10.617,10.617,0,0,0,0,2.654v10.25l.626-4.1c.324,4.532,0,9.624.669,4.9-1.079,6.948-.388,38.194-.712,42.445l.108,1.662v1.964c0,1.511,0,3.021.129,4.575H16.655c-1.921-.129-3.086-.82,3.625-.734-2.46,1.446,12.257.626,17.673,1.662-4.834-.691,19.054-.173,11.458-1.144,5.589,0,.345.539,4.6.885,13.293-.561,29.326.367,45.769.173.259-.194-2.5-.475,1.036-.755l8.632.949c3.258,0,3-1.1,8.934-.453-.842-.151-2.158-.388,0-.453,32.239.928,65.858-.755,98.593.971-4.445-.367-1.489-.388,1.9-.41-2.158,0,0-.475-.367-.734l13.7.712c2.482-.712,14.674,0,16.119-.712l-4.316.108c5.762-.8-8.092-1.791-7.25-2.827-6.474.928-17.026-1.338-27.621,0-2.352-.194,1.985-.324.734-.561a61.8,61.8,0,0,1-11.933.324l.669-.108c-16.9.108-24.147-.324-43.158-.6l1.4.5a61.744,61.744,0,0,1-6.84-.345c-4.683.777,11.458,0,7.186.885-5.416-1.036-28.764,0-32.368-1.187-6.279,0,1.834.583-4.445.583l-1.662-.324-1.575.41a16.183,16.183,0,0,1-6.344-.734h3.906c-5.352-.367-15.105.129-16.875,0l6.02.194c-17.112.3-38.022-.129-54.573.518l1.252.259c-12.624.432-10.12-.281-24,0h.518c-2.784.237-6.474.367-10.271.345,3.5-.281-6.6-.561-2.007-.863l-5.956.216H6.469c-.712.108-.906.216-2.158.432a14.717,14.717,0,0,1-.259-2.611c.129-.561.259-1.359.388-2.028a65.253,65.253,0,0,1-.647-10.271c.345,5.7.6-4.424,1.057,1.942.885-14.522-.885-21.579.388-28.247-1.1-6.668-.6,12.58-.842,8.847-.367,3.129-.82-5.524-.712-10.077s1.4-7.9,1.381-19.572v2.4c.281-4.316-.388-8.632,0-13.918-.669-3.021,0-6.97-.8-7.833l.194,10.789a183.208,183.208,0,0,1-.755-21.773c.173.777.41,3.755.539,5.8.237-2.935-.173-5.632,0-8.632.863.863.194,12.947.842,19.421.367-3.129-.626-12.3.3-9.042-1.165-4.683.151-11.5-.755-19.421l.518.539c0-1.252-.324-3.863-.3-6.15L5.5,386.6c-.561-6.474.5-12.343.194-18.493,0,12.947-.6,2.892-.993,8.329-.691-15.86,1.338-9.128,1.1-26.887,0,2.4-.3,9.02-.539,5.265.108-3.388.3-7.833.561-9.926-.108-11.76-.518,1.813-.842-3.194.626-4.014-.259-5.783-.453-10.94h.518c.345-13.4-1.079-3.539-.669-15.623l.712,5.114-.194-6.3.6,1.295a136.187,136.187,0,0,1-.151-15.688c-.367,1.554-.949-.863-.971-6.819.3-4.035.5,2.266.41-6.15a21.277,21.277,0,0,1,.259,7.66c.173.367.324,1.877.5,2.158.367-4.316,0-10.962,0-14a24.341,24.341,0,0,1-.129,3.3L4.7,273.488c.194-1.921.345-.388.5,1.122,0-2.482-.3-4.186-.345-7.812.432.928.863.712,1.057,5.848l-.129-11.717c.173-.777.5-5.956.647-4.445.259-6.474-.82-15.817-.5-24.362,0-.453-.151-1.338-.216-3.15.108-8.027.626-15.105,0-24.665l.712-5.416c0-7.445-.863,7.315-1.165-5.093-.237-8.8.647-3.28.863-6.474a120.711,120.711,0,0,1-.539-20.047C5.736,170.061,5.606,172.154,5.671,174.614ZM5.347,82.689a36.683,36.683,0,0,1,.129,6.646A18.407,18.407,0,0,1,5.347,82.689ZM63.308,4.336a30.62,30.62,0,0,1-5.7,0A27.834,27.834,0,0,1,63.308,4.336ZM257.517,200.9V200.7c.237-3.97.151-2.568.065.194Zm-.173,8.243c0,.82.151.777.216.432a34.524,34.524,0,0,1,0-4.553A17.566,17.566,0,0,0,257.344,209.14ZM.88,431.6l.151-1.618C1.183,433.56,1.031,432.589.88,431.6Z" transform="translate(-0.041 0.172)" fill="url(#bb)"/><path d="M22.641,2.571a1.446,1.446,0,0,1-.755-.281C21.217,2.376,21.2,2.484,22.641,2.571Z" transform="translate(24.744 2.65)" fill="url(#bc)"/><path d="M2.787,107.52v.281a.734.734,0,0,0,0,.281Z" transform="translate(3.123 124.493)" fill="url(#bd)"/><path d="M117.24,39.513a31.9,31.9,0,0,1,.259-3.28C117.369,36.147,117.262,36.924,117.24,39.513Z" transform="translate(135.661 41.944)" fill="url(#be)"/><path d="M119.852,120.107l-.129-5.287a47.7,47.7,0,0,1-.173,4.769C119.679,119.524,119.852,118.445,119.852,120.107Z" transform="translate(138.336 132.945)" fill="url(#bf)"/><path d="M118.2,139.43v2.4l.237-.216C118.5,138.265,118.308,136.107,118.2,139.43Z" transform="translate(136.773 159.52)" fill="url(#bg)"/><path d="M119.088,119.54a27.836,27.836,0,0,0-.216,7.423v-.647C119.5,127.416,119.325,123.467,119.088,119.54Z" transform="translate(137.374 138.411)" fill="url(#bh)"/><path d="M118.8,123.38v3.431C119.059,127.243,118.865,125.43,118.8,123.38Z" transform="translate(137.467 142.857)" fill="url(#bi)"/><path d="M119.446,103.7c-.129,1.769.561,1.1.367,2.158C120.374,107.761,119.144,94.1,119.446,103.7Z" transform="translate(138.159 116.074)" fill="url(#bj)"/><path d="M118.22,122.759l.539-1.338-.432-2.072Z" transform="translate(136.796 138.191)" fill="url(#bk)"/><path d="M118.491,107.382l-.151,5.913a12.257,12.257,0,0,1,.173,1.575C118.534,111.223,118.642,107.231,118.491,107.382Z" transform="translate(136.935 124.329)" fill="url(#bl)"/><path d="M118.42,110.85v4.769C118.506,114.583,118.485,112.382,118.42,110.85Z" transform="translate(137.027 128.349)" fill="url(#bm)"/><path d="M118.15,120.364l.108-1.748.043-4.186Z" transform="translate(136.715 132.494)" fill="url(#bn)"/><path d="M118.662,81.447l-.151-6.474c-.173-.647-.3,1.1-.216,3.517C118.424,80.044,118.489,82.439,118.662,81.447Z" transform="translate(136.85 86.65)" fill="url(#bo)"/><path d="M117.909,88.633a15.1,15.1,0,0,1,.41-2.848l-.669-.194Z" transform="translate(136.136 99.101)" fill="url(#bp)"/><path d="M117.968,80.724c-.194-.647-.539-9.365-.5-1.187C117.645,80.249,117.8,86.723,117.968,80.724Z" transform="translate(135.925 88.063)" fill="url(#bq)"/><path d="M118.09,33.12v1.64l1.1-.216Z" transform="translate(136.645 38.347)" fill="url(#br)"/><path d="M110.422,3.382c7.66.259,1.813-.691,8.632-.367,1.791-.259-5.654-.259-3.819-.475C110.767,2.8,108.264,2.648,110.422,3.382Z" transform="translate(126.856 2.939)" fill="url(#bs)"/><path d="M112.3,2.633l2.374-.173C113.336,2.525,112.688,2.568,112.3,2.633Z" transform="translate(129.941 2.846)" fill="url(#bt)"/><path d="M111.94,230.1l4.92.216-3.194-.367Z" transform="translate(129.524 266.252)" fill="url(#bu)"/><path d="M116.31,229.64l1.165.691,2.956-.626a32.094,32.094,0,0,1-4.122-.065Z" transform="translate(134.584 265.893)" fill="url(#bv)"/><path d="M3.369,32.257,3.2,31.89a24.1,24.1,0,0,0-.216,4.316Z" transform="translate(3.34 36.923)" fill="url(#bw)"/><path d="M3.246,63.6V62.46L2.62,64.618Z" transform="translate(2.945 72.319)" fill="url(#bx)"/><path d="M3.468,92.89V85.64C3.489,90.5,2.669,93.408,3.468,92.89Z" transform="translate(3.522 99.159)" fill="url(#by)"/></g></g></svg>