<svg xmlns="http://www.w3.org/2000/svg" xmlns:xlink="http://www.w3.org/1999/xlink" width="49.293" height="68.102" viewBox="0 0 49.293 68.102"><defs><linearGradient id="a" x1="-0.629" y1="-0.233" x2="0.718" y2="0.953" gradientUnits="objectBoundingBox"><stop offset="0"/><stop offset="1" stop-color="#369b48"/></linearGradient></defs><g transform="translate(-10337.246 2720)"><path d="M380.253,221.1l-.08-1.882c-.04-.6-.04-1.241-.04-1.841a19.559,19.559,0,0,0-.4-3.963,5.19,5.19,0,0,0-.32-1.041c-.08-.16-.12-.36-.2-.521l-.28-.48a3.32,3.32,0,0,0-.32-.48,4.239,4.239,0,0,0-.36-.44,3.662,3.662,0,0,0-.881-.72,4.427,4.427,0,0,0-2.042-.681,8.992,8.992,0,0,0-1.041,0,9.634,9.634,0,0,0-1,.12c-.36.04-.28.641.04.681a5.383,5.383,0,0,1,3.163,1.121,4.243,4.243,0,0,1,1.121,2.842,27.009,27.009,0,0,1,0,3.6c-.04.641-.04,1.241-.04,1.922s.04,1.281.04,1.922a18.561,18.561,0,0,1-.2,4.284,4.205,4.205,0,0,1-.681,1.6,2.351,2.351,0,0,1-1.161.8c-.24-3.243-.48-6.485-.681-9.728-.04-.761-.641-.761-.681,0-.32,5.765-.24,11.53-.32,17.254-.04,2.882-.12,5.725-.32,8.567l-.16,2.122-.08,1.041-.04.521c-.04.16-.04.32-.08.44a5.106,5.106,0,0,1-.521,1.562,1.268,1.268,0,0,1-.8.641.961.961,0,0,1-.561-.08,1.681,1.681,0,0,1-.641-.48,4.373,4.373,0,0,1-.881-1.721,10.161,10.161,0,0,1-.16-1.081l-.04-1.281-.04-2.6c-.04-3.483.04-7.006.08-10.529,0-1.682-.561-3.043-1.281-3.043s-1.321,1.361-1.321,3c-.04,3.523-.08,7.046-.08,10.569l.04,2.642.04,1.361a9.417,9.417,0,0,0,.2,1.481l-.24.6a3.438,3.438,0,0,1-.8,1.041,1.929,1.929,0,0,1-1,.48,1.207,1.207,0,0,1-.841-.2,2.307,2.307,0,0,1-.72-.881,7.012,7.012,0,0,1-.6-2.923,38.271,38.271,0,0,1,.16-4.243,41.037,41.037,0,0,0,.28-4.524V219.586c0-1.081-.6-1.922-1.321-1.922s-1.321.881-1.321,1.922v8.247l-.08-.04a2.466,2.466,0,0,1-.8-.641,5.157,5.157,0,0,1-.761-1.961,12.873,12.873,0,0,1-.2-2.522v-2.722c0-.44,0-.961-.04-1.441l-.08-1.361c-.04-.921-.08-1.8-.04-2.642a7.771,7.771,0,0,1,.44-2.4,2.975,2.975,0,0,1,1.481-1.641,2.359,2.359,0,0,1,.561-.24l.28-.12.48-.123c.2-.04.4-.08.641-.12l.641-.04c.44-.04.521-.6,0-.681l-.72-.08h-1.081l-.36.08a2.435,2.435,0,0,0-.721.2,4.249,4.249,0,0,0-2.4,2,8.656,8.656,0,0,0-.921,2.882,23.346,23.346,0,0,0-.24,2.842l-.04,1.361c0,.44-.04.881-.08,1.321-.08.921-.16,1.841-.16,2.8a14.848,14.848,0,0,0,.16,2.962,7.219,7.219,0,0,0,1.2,3.123,4.743,4.743,0,0,0,1.761,1.441,7.571,7.571,0,0,0,.72.24c.16.04.28.08.44.12v7.406c0,1.361-.16,2.8-.28,4.284a42.551,42.551,0,0,0-.2,4.564,11.858,11.858,0,0,0,.24,2,7.158,7.158,0,0,0,.72,2.082,4.973,4.973,0,0,0,1.641,1.8,3.724,3.724,0,0,0,2.6.521,4.572,4.572,0,0,0,2.2-1.081,4.48,4.48,0,0,0,.72-.8,2,2,0,0,0,.28.32,4.574,4.574,0,0,0,1.481,1.081,3.416,3.416,0,0,0,2,.28,3.651,3.651,0,0,0,1.562-.681,4.1,4.1,0,0,0,1.041-1.161,7.05,7.05,0,0,0,.881-2.522c.04-.2.04-.4.08-.6l.04-.561.08-1.081c.04-.72.08-1.441.12-2.2.12-2.923.08-5.805-.04-8.727-.08-1.641-.16-3.283-.28-4.924a1.94,1.94,0,0,0,.48-.04,4.538,4.538,0,0,0,2.562-1.721,6.131,6.131,0,0,0,1.121-2.6,17.634,17.634,0,0,0,.281-4.963Z" transform="translate(10006.234 -2905.136)" fill="url(#a)"/><path d="M397.748,126.927a6.013,6.013,0,0,0-.32,2.642,5.411,5.411,0,0,0,3.483,4.684,6.774,6.774,0,0,0,3.2.44,5.894,5.894,0,0,0,3.043-1.2,5.369,5.369,0,0,0,1.922-2.762,1.731,1.731,0,0,0-.12-1.361,1.044,1.044,0,0,0-.881-.521,1.46,1.46,0,0,0-.921.36,1.524,1.524,0,0,0-.521.72,2.861,2.861,0,0,1-1,1.441,3.788,3.788,0,0,1-1.761.681,3.54,3.54,0,0,1-3.363-1.361,3.291,3.291,0,0,1-.521-1.4,3.544,3.544,0,0,1,.12-1.6,3.35,3.35,0,0,1,2.122-2.162,4.47,4.47,0,0,1,3.443.12,3.783,3.783,0,0,1,2.082,2.923.384.384,0,0,0,.36.28.283.283,0,0,0,.32-.28,5.006,5.006,0,0,0-.4-2.282,4.449,4.449,0,0,0-1.562-1.882,6.038,6.038,0,0,0-2.282-.961,5.963,5.963,0,0,0-2.522.08,5.676,5.676,0,0,0-2.362,1.161,4.882,4.882,0,0,0-1.56,2.242Z" transform="translate(9971.284 -2831.696)" fill="url(#a)"/><path d="M201.139,219.631c-.04-.6-.04-1.2-.04-1.841a22.353,22.353,0,0,0-.36-3.923,7.273,7.273,0,0,0-.28-1l-.2-.521-.24-.48c-.16-.32-.4-.641-.6-.961a4.014,4.014,0,0,0-.881-.761,3.017,3.017,0,0,0-.48-.28l-.521-.2-.24-.08-.28-.04-.521-.08a8.668,8.668,0,0,0-1-.04,9.637,9.637,0,0,0-1,.12c-.36.04-.28.641.04.681a4.775,4.775,0,0,1,3.082,1.2,2.7,2.7,0,0,1,.44.561,4.9,4.9,0,0,1,.28.681l.12.36.08.4a5.36,5.36,0,0,1,.12.841c.08,1.121,0,2.362-.04,3.6-.04.641-.04,1.281-.04,1.922s.04,1.281.04,1.882a18.217,18.217,0,0,1-.24,4.244,4.94,4.94,0,0,1-.4,1.161c-.04-.48-.08-.921-.12-1.4l-.24-2.642-.12-1.321-.08-.681v-.561c0-.841,0-1.761-.04-2.682a8.769,8.769,0,0,0-.12-1.441,7.038,7.038,0,0,0-.16-.8,3.031,3.031,0,0,0-.24-.641,4.012,4.012,0,0,0-.32-.561,3.067,3.067,0,0,0-.44-.32,2.717,2.717,0,0,0-.48-.24l-.561-.12-.4-.04a4.924,4.924,0,0,0-1.281-.12,23.286,23.286,0,0,0-2.362.16c-.521.04-1.081.12-1.562.12h-.28l-.36-.04-.8-.08a30.2,30.2,0,0,0-3.363-.16,8.556,8.556,0,0,0-.961.08,3.262,3.262,0,0,0-1.441.6,2.289,2.289,0,0,0-.44.641,1.436,1.436,0,0,0-.16.36l-.12.36a9.731,9.731,0,0,0-.16.961,24.481,24.481,0,0,0-.16,3.363c0,.521,0,1.121-.04,1.481l-.16,1.6-.36,3.2-.08.641a2.307,2.307,0,0,1-.2-.561,10.1,10.1,0,0,1-.36-2.522c-.04-.921-.04-1.841-.04-2.8.04-.961,0-2-.04-2.923-.04-.961-.08-1.882-.08-2.8a10.157,10.157,0,0,1,.36-2.562,3.3,3.3,0,0,1,1.481-1.8,1.735,1.735,0,0,1,.28-.16l.32-.12a2.987,2.987,0,0,1,.641-.2l.681-.12.681-.04c.48-.04.521-.6,0-.681l-.761-.08-.761.04a2.52,2.52,0,0,0-.761.12l-.4.08a1.416,1.416,0,0,0-.36.16,4.463,4.463,0,0,0-2.4,2.2,10.8,10.8,0,0,0-.841,3.043c-.12,1-.16,2-.2,2.962s-.08,1.841-.16,2.8-.12,1.961-.12,2.962a11.049,11.049,0,0,0,.4,3.163,5.535,5.535,0,0,0,1.961,3.082l.36.24L180,232.6c-.2,2.042.2,3.723.921,3.8,0,.16.24.32.681.32h.28v3.643c0,.72,0,1.281-.04,1.961l-.12,2.082a23.338,23.338,0,0,0,.08,4.4,8.439,8.439,0,0,0,.48,1.922,4.4,4.4,0,0,0,1.281,1.882,3.349,3.349,0,0,0,1.081.641,4.939,4.939,0,0,0,1.161.28,1.712,1.712,0,0,0,.641,0,4.1,4.1,0,0,0,.681-.12,4.459,4.459,0,0,0,.641-.28c.2-.12.36-.24.561-.36a4.527,4.527,0,0,0,.961-1.241c0,.04.04.04.04.08.2.24.4.44.641.681.24.2.521.36.8.561a4.491,4.491,0,0,0,.961.32,3,3,0,0,0,1.041.04,2.365,2.365,0,0,0,.521-.08c.16-.04.32-.12.48-.16a4.666,4.666,0,0,0,.44-.2l.4-.28a5.227,5.227,0,0,0,.72-.6,5.353,5.353,0,0,0,1.281-2.442c.04-.2.12-.44.16-.641l.08-.641c.04-.44.04-.8.08-1.161.04-1.441.08-2.882.08-4.364,0-1.8,0-3.643-.04-5.444h.2l1.761.04q-.3-3.482-.6-6.966A4.727,4.727,0,0,0,199.859,229a6.539,6.539,0,0,0,1.161-2.6,18.912,18.912,0,0,0,.28-4.924ZM181.6,236h-.08a6.451,6.451,0,0,0,1.081-3.2l.681-6.405.36-3.2.16-1.6c.04-.681.04-1.161.04-1.721a24.52,24.52,0,0,1,.16-3.043c.04-.24.08-.44.12-.641a3.222,3.222,0,0,1,.641-.04c.961,0,2,.08,3.082.16l.8.08.44.04h.521c.6-.04,1.121-.08,1.641-.12.761-.08,1.481-.12,2.162-.16h1.161a1.489,1.489,0,0,1,.08.48c.04.36.08.8.12,1.2.04.841.04,1.721.08,2.642l.04.4v.36l.08.681.16,1.321.32,2.642.681,5.285.36,2.642.16,1.241.08.36-.28.04h-.72l-1.962.08-4.043.16c-2.722.08-5.444.2-8.127.32Zm5.805,13.932a2.494,2.494,0,0,1-.681.921.911.911,0,0,1-.641.16,2.784,2.784,0,0,1-.48-.12,1.13,1.13,0,0,1-.36-.24,3.768,3.768,0,0,1-.881-2.242,20.636,20.636,0,0,1-.08-3.883l.12-2.042c.04-.681.08-1.481.08-2.162v-3.523c1.161.04,2.362.08,3.523.16-.04,2.722-.08,5.444-.04,8.206,0,.881.04,1.761.08,2.683v.04c-.04.24-.12.48-.16.681a13.485,13.485,0,0,1-.48,1.36Zm7.046-7.326c-.04,1.441-.12,2.842-.16,4.284a7.31,7.31,0,0,1-.08,1l-.04.44c-.04.16-.08.28-.12.4a3.107,3.107,0,0,1-.681,1.361,1.318,1.318,0,0,1-1.161.48,1.628,1.628,0,0,1-1.081-.961,5.261,5.261,0,0,1-.48-2c-.04-.6-.04-1.241-.08-1.882v-.16c.08-1.761.04-3.523-.04-5.244,0-1.081.04-2.2.04-3.283l3.2.08.881.04c-.08,1.8-.12,3.643-.2,5.444Z" transform="translate(10159.727 -2905.464)" fill="url(#a)"/><path d="M219.655,132.172a5.706,5.706,0,0,0,2.6,2.082,6.775,6.775,0,0,0,3.2.44,5.894,5.894,0,0,0,3.043-1.2,5.369,5.369,0,0,0,1.922-2.762,1.731,1.731,0,0,0-.12-1.361,1.044,1.044,0,0,0-.881-.521,1.46,1.46,0,0,0-.921.36,1.524,1.524,0,0,0-.521.72,2.862,2.862,0,0,1-1,1.441,3.788,3.788,0,0,1-1.761.681,3.54,3.54,0,0,1-3.363-1.361,3.291,3.291,0,0,1-.521-1.4,3.544,3.544,0,0,1,.12-1.6,3.35,3.35,0,0,1,2.122-2.162,4.469,4.469,0,0,1,3.443.12,3.782,3.782,0,0,1,2.082,2.923.384.384,0,0,0,.36.28.283.283,0,0,0,.32-.28,5.006,5.006,0,0,0-.4-2.282,4.449,4.449,0,0,0-1.562-1.882,6.038,6.038,0,0,0-2.282-.961,5.963,5.963,0,0,0-2.522.08,5.676,5.676,0,0,0-2.362,1.161,5.829,5.829,0,0,0-1.562,2.242,6.013,6.013,0,0,0-.32,2.642,4.955,4.955,0,0,0,.882,2.6Z" transform="translate(10124.396 -2831.697)" fill="url(#a)"/><path d="M300.78,55.78q.9-.66,1.682-1.321l.761-.681.36-.32.44-.4a9.25,9.25,0,0,0,2.082-3.163,6.954,6.954,0,0,0,.4-3.963,5.372,5.372,0,0,0-.36-1.041,7.285,7.285,0,0,0-.6-.921,4.536,4.536,0,0,0-.761-.761,5.191,5.191,0,0,0-.841-.561,3.782,3.782,0,0,0-.921-.4l-.44-.16-.24-.08c-.08-.04-.2-.04-.28-.08a4.155,4.155,0,0,0-2.162.24c-.6.2-1.081.44-1.4.521a2.6,2.6,0,0,1-1.2-.08,14.187,14.187,0,0,0-1.641-.4,5.17,5.17,0,0,0-1.922,0,5.414,5.414,0,0,0-3.123,1.922,5.6,5.6,0,0,0-1.2,3.283c0,.32.16.44.32.44a.428.428,0,0,0,.36-.4,4.578,4.578,0,0,1,1.361-2.6,3.886,3.886,0,0,1,2.482-1.161,6.241,6.241,0,0,1,2.842.681,4.1,4.1,0,0,0,2.042.28,13.96,13.96,0,0,0,1.721-.48,2.086,2.086,0,0,1,1.081-.08.147.147,0,0,1,.12.04l.16.08.32.12a3.6,3.6,0,0,1,.561.28,2.538,2.538,0,0,1,1.281,1.8,5.952,5.952,0,0,1-1.882,4.764l-.28.28-.4.32-.72.641a13.491,13.491,0,0,1-1.481,1.161c-.24.16-.48.32-.681.44a2.518,2.518,0,0,1-.681.24l-.2.04-.08-.04a1.345,1.345,0,0,0-.24-.12c-.2-.08-.36-.12-.521-.2a9.956,9.956,0,0,1-2.962-1.882,11.171,11.171,0,0,1-2.322-2.683,3.2,3.2,0,0,0-.841-1.041,1.58,1.58,0,0,0-1-.48c-.36,0-.681.28-.8.841a2.97,2.97,0,0,0,.36,1.961,13.2,13.2,0,0,0,2.882,3.363,14.416,14.416,0,0,0,1.761,1.321,10.868,10.868,0,0,0,2.042,1.041,2.816,2.816,0,0,0,.4.16c.08.04.12.04.2.08l.12.08.2.12a1.128,1.128,0,0,0,.881.12,2.247,2.247,0,0,0,.48-.16.3.3,0,0,1,.16-.04l.12-.04a5.685,5.685,0,0,0,1.2-.44,2.563,2.563,0,0,0,1-.48Z" transform="translate(10064.249 -2761.87)" fill="url(#a)"/></g></svg>