<svg xmlns="http://www.w3.org/2000/svg" xmlns:xlink="http://www.w3.org/1999/xlink" width="471" height="77" viewBox="0 0 471 77"><defs><style>.a{mix-blend-mode:multiply;isolation:isolate;fill:url(#a);}.b{fill:url(#b);}.c{fill:url(#c);}</style><radialGradient id="a" cx="0.722" cy="0.695" r="0.742" gradientTransform="matrix(0.819, 0.574, -0.574, 0.819, 0.531, -0.289)" gradientUnits="objectBoundingBox"><stop offset="0" stop-color="#43c259"/><stop offset="1" stop-color="#0b0d0e"/></radialGradient><radialGradient id="b" cx="0.794" cy="0.672" r="0.632" gradientTransform="matrix(0.95, 0.313, -0.313, 0.95, 0.25, -0.215)" gradientUnits="objectBoundingBox"><stop offset="0" stop-color="#40bc5c"/><stop offset="1" stop-color="#0b0d0e"/></radialGradient><radialGradient id="c" cx="0.751" cy="0.707" r="0.688" gradientTransform="translate(0 0.053) scale(1 0.925)" gradientUnits="objectBoundingBox"><stop offset="0" stop-color="#43c05b"/><stop offset="1" stop-color="#0b0d0e"/></radialGradient></defs><g transform="translate(-154 -908)"><g transform="translate(-261 324)"><path class="a" d="M38,76A38,38,0,0,1,11.121,11.139,38,38,0,0,1,64.913,64.828,37.746,37.746,0,0,1,38.049,76ZM27.9,34.6v7.2h5.4V56.191h7.2V41.8h5.4l1.8-7.2H40.5V29.2a1.8,1.8,0,0,1,1.8-1.8h5.4V20.2H42.3a9.007,9.007,0,0,0-9,9v5.4Z" transform="translate(415 584)"/><path class="b" d="M38,76A38,38,0,0,1,11.121,11.139,38,38,0,0,1,64.913,64.828,37.746,37.746,0,0,1,38.049,76Zm.624-58.682c-3.451,0-6.515.052-8,.136-3.621.172-6.125,1.135-8.12,3.121s-2.946,4.48-3.129,8.12c-.183,3.213-.183,12.778,0,15.991.172,3.63,1.137,6.134,3.129,8.12s4.5,2.949,8.12,3.129c1.5.084,4.563.137,8,.137s6.5-.052,8-.137c3.628-.17,6.132-1.135,8.12-3.129s2.949-4.49,3.129-8.12c.182-3.211.182-12.771,0-15.982-.17-3.628-1.135-6.132-3.129-8.12s-4.487-2.947-8.12-3.129C45.137,17.37,42.074,17.318,38.623,17.318ZM42.054,52.6h0c-.728,0-1.428-.007-2.046-.013-.507-.005-.981-.01-1.381-.01s-.859,0-1.352.009c-.607.006-1.289.012-2,.012-2.6,0-6.258-.083-8.075-.8a6.537,6.537,0,0,1-3.683-3.683c-.869-2.188-.821-6.915-.789-10.042v-.012c.005-.5.01-.97.01-1.368s0-.852-.009-1.34v-.012c-.03-3.14-.076-7.885.788-10.072A6.537,6.537,0,0,1,27.2,21.588c1.811-.719,5.432-.8,8-.8.726,0,1.426.007,2.043.013.509.005.983.01,1.383.01s.859,0,1.352-.009c.6-.006,1.285-.012,2-.012,2.6,0,6.256.083,8.073.8a6.545,6.545,0,0,1,3.685,3.683c.867,2.187.819,6.914.788,10.042-.005.5-.01.977-.01,1.382s0,.879.01,1.382c.032,3.13.08,7.861-.788,10.041A6.545,6.545,0,0,1,50.05,51.8C48.239,52.52,44.619,52.6,42.054,52.6ZM38.628,26.759A9.936,9.936,0,1,0,48.563,36.7,9.948,9.948,0,0,0,38.628,26.759ZM48.97,24.035a2.317,2.317,0,1,0,2.317,2.317A2.32,2.32,0,0,0,48.97,24.035ZM38.628,43.154A6.46,6.46,0,1,1,45.087,36.7,6.467,6.467,0,0,1,38.628,43.154Z" transform="translate(507 584)"/><path class="c" d="M38.5,77a38.5,38.5,0,0,1-27.23-65.715,38.5,38.5,0,0,1,54.5,54.4A38.243,38.243,0,0,1,38.55,77ZM21.487,30.312a6.037,6.037,0,0,0-.043.759,23.86,23.86,0,0,0,1.179,5.89A24.771,24.771,0,0,0,25.2,41.966a51.126,51.126,0,0,0,8.023,9.422,24.071,24.071,0,0,0,10.38,5.89,12.44,12.44,0,0,0,10.011-2.43c.179-.154.39-.321.614-.5,1.047-.829,2.48-1.965,2.48-3.183a4.91,4.91,0,0,0-2.135-3.679l-.379-.343c-1.573-1.428-3.727-3.384-5.864-3.384a3.608,3.608,0,0,0-2.3.855,11.58,11.58,0,0,0-1.066,1.052c-.863.923-1.84,1.968-2.983,1.968a6.011,6.011,0,0,1-4.2-1.767,26.343,26.343,0,0,1-6.479-7.8,4.445,4.445,0,0,1,0-4.342,8.191,8.191,0,0,1,1.856-1.62,9.285,9.285,0,0,0,1.677-1.4c2.032-2.381-.525-6.28-1.488-7.748l-.132-.2c-.9-1.4-2.13-3.028-3.607-3.239a1.9,1.9,0,0,0-.268-.019c-1.21,0-2.354,1.126-3.273,2.031-.179.176-.348.342-.506.49a12,12,0,0,0-4.05,9.019L21.51,30.8A3.12,3.12,0,0,0,21.487,30.312Z" transform="translate(599 584)"/></g><path class="c" d="M38.5,77h0A38.51,38.51,0,0,1,23.508,3.028,38.51,38.51,0,0,1,53.537,73.953,38.259,38.259,0,0,1,38.549,77H38.5Zm.314-22.394h0a23.834,23.834,0,0,0,5.572,4.674,11.845,11.845,0,0,0,4.495,1.526,9.985,9.985,0,0,0,1.169.091,9.1,9.1,0,0,0,3.64-.72,9.546,9.546,0,0,0,5.843-7.46,8.54,8.54,0,0,0-.407-4.809c-.072-.173-.144-.35-.216-.528-.151-.372-.306-.755-.458-1.089-.161-.36-.322-.714-.478-1.056-.2-.433-.383-.839-.558-1.237l-.045-.045c-3.218-7-6.56-13.83-9.932-20.314l-.134-.27c-.378-.717-.741-1.428-1.078-2.112l-.107-.193a11.984,11.984,0,0,0-1.511-2.279A7.287,7.287,0,0,0,38.9,16a7.553,7.553,0,0,0-5.752,2.7,15.236,15.236,0,0,0-1.619,2.472c-.346.7-.709,1.411-1.077,2.112l-.135.271c-3.8,7.409-7.053,14.053-9.932,20.312l-.045.09c-.186.424-.384.858-.594,1.318-.145.316-.294.642-.443.974-.226.5-.452,1.043-.673,1.618a10.161,10.161,0,0,0-.537,4.855,9.589,9.589,0,0,0,5.843,7.46,9.18,9.18,0,0,0,3.574.72h.067a10.216,10.216,0,0,0,1.169-.091,11.834,11.834,0,0,0,4.494-1.526,22.929,22.929,0,0,0,5.572-4.674ZM27.633,58.158a7.17,7.17,0,0,1-2.617-.493,6.659,6.659,0,0,1-4.087-5.26,7.468,7.468,0,0,1,.4-3.5,8.5,8.5,0,0,1,.375-.953c.068-.156.139-.316.209-.486.335-.764.712-1.563,1.037-2.245L23,45.128c3.279-7.083,6.605-13.872,9.886-20.179l.135-.271c.185-.346.373-.71.555-1.061.173-.334.35-.678.525-1.005a9.819,9.819,0,0,1,1.258-1.979,4.715,4.715,0,0,1,7.184,0A9.922,9.922,0,0,1,43.8,22.608c.176.328.354.673.526,1.006.182.352.37.715.556,1.061l.135.271c3.387,6.636,6.7,13.44,9.843,20.224v.045c.179.358.35.744.515,1.118s.34.768.521,1.13c.067.161.134.313.2.461a8.539,8.539,0,0,1,.385.979,7.566,7.566,0,0,1,.308,3.458,6.686,6.686,0,0,1-6.644,5.76,7.529,7.529,0,0,1-.859-.05A8.87,8.87,0,0,1,45.869,56.9a21.06,21.06,0,0,1-5.123-4.36c2.927-3.592,4.757-6.933,5.438-9.932a11.217,11.217,0,0,0,.225-3.82A7.337,7.337,0,0,0,45.2,35.732a7.535,7.535,0,0,0-6.338-3.19,7.716,7.716,0,0,0-6.336,3.19,7.337,7.337,0,0,0-1.213,3.056,9.286,9.286,0,0,0,.224,3.82c.673,2.962,2.5,6.319,5.437,9.977a20.287,20.287,0,0,1-5.123,4.361,8.773,8.773,0,0,1-3.415,1.167A7.218,7.218,0,0,1,27.633,58.158ZM38.857,50.25h0a22.237,22.237,0,0,1-4.539-8.358,7.268,7.268,0,0,1-.135-2.742,4.387,4.387,0,0,1,.72-1.887,4.74,4.74,0,0,1,3.955-1.977,4.613,4.613,0,0,1,3.956,1.977,4.4,4.4,0,0,1,.72,1.887,7.265,7.265,0,0,1-.135,2.742,23.006,23.006,0,0,1-4.54,8.358Z" transform="translate(432 908)"/><path class="c" d="M38.5,77h0A38.51,38.51,0,0,1,23.508,3.028,38.51,38.51,0,0,1,53.537,73.953,38.259,38.259,0,0,1,38.549,77H38.5ZM16.157,48.1a.142.142,0,0,0-.129.061c-.053.084-.028.244.073.464,1.979,4.31,7.81,11.6,17.111,11.6,12.156,0,18.715-9.106,18.715-17.674V35.277h7.8c.278,0,.472-.085.547-.239a.561.561,0,0,0-.151-.575L45.812,16.338a.783.783,0,0,0-1.288,0L30.216,34.461a.563.563,0,0,0-.151.576c.075.154.269.239.547.239h7.744v7.278c0,4.077-2.641,8.838-10.084,8.838a23.967,23.967,0,0,1-11.718-3.135A.839.839,0,0,0,16.157,48.1Z" transform="translate(548 908)"/></g></svg>