<svg xmlns="http://www.w3.org/2000/svg" xmlns:xlink="http://www.w3.org/1999/xlink" width="372.739" height="165.142" viewBox="0 0 372.739 165.142"><defs><linearGradient id="a" x1="0.306" y1="0.178" x2="0.738" y2="1" gradientUnits="objectBoundingBox"><stop offset="0" stop-color="#0c0f0f"/><stop offset="1" stop-color="#369b48"/></linearGradient><radialGradient id="b" cx="0.5" cy="0.5" r="0.633" gradientTransform="matrix(1, -0.022, 0.028, 1.277, -0.014, -0.128)" gradientUnits="objectBoundingBox"><stop offset="0" stop-color="#369b48"/><stop offset="0.569" stop-color="#28ce4a"/><stop offset="1" stop-color="#084a4a"/></radialGradient><filter id="c" x="0" y="94.642" width="79.503" height="70.496" filterUnits="userSpaceOnUse"><feOffset dy="10" input="SourceAlpha"/><feGaussianBlur stdDeviation="6.5" result="d"/><feFlood flood-color="#359f4e"/><feComposite operator="in" in2="d"/><feComposite in="SourceGraphic"/></filter><linearGradient id="e" x1="0.327" x2="0.808" y2="1.15" gradientUnits="objectBoundingBox"><stop offset="0" stop-color="#0b0d0e"/><stop offset="1" stop-color="#369b48"/></linearGradient><radialGradient id="f" cx="0.344" cy="0.5" r="1.534" gradientTransform="matrix(0.112, 0.994, -0.714, 0.08, 0.662, 0.118)" gradientUnits="objectBoundingBox"><stop offset="0" stop-color="#1fd377"/><stop offset="1" stop-color="#031406"/></radialGradient><filter id="g" x="86.001" y="94.642" width="84" height="70.5" filterUnits="userSpaceOnUse"><feOffset dy="10" input="SourceAlpha"/><feGaussianBlur stdDeviation="6.5" result="h"/><feFlood flood-color="#359f4e"/><feComposite operator="in" in2="h"/><feComposite in="SourceGraphic"/></filter><linearGradient id="i" x1="0.2" y1="0.193" x2="0.763" y2="1" xlink:href="#e"/><radialGradient id="j" cx="0.5" cy="0.5" r="0.5" gradientUnits="objectBoundingBox"><stop offset="0" stop-color="#1fd377"/><stop offset="1" stop-color="#084a4a"/></radialGradient><filter id="k" x="196.001" y="91.964" width="87.826" height="73.178" filterUnits="userSpaceOnUse"><feOffset dy="10" input="SourceAlpha"/><feGaussianBlur stdDeviation="6.5" result="l"/><feFlood flood-color="#369b48"/><feComposite operator="in" in2="l"/><feComposite in="SourceGraphic"/></filter><linearGradient id="m" x1="0.196" y1="0.188" x2="0.88" y2="1" xlink:href="#e"/><radialGradient id="n" cx="0.5" cy="0.5" r="0.5" gradientUnits="objectBoundingBox"><stop offset="0" stop-color="#22ca77"/><stop offset="1" stop-color="#0b534f"/></radialGradient><filter id="o" x="290.325" y="76.5" width="82.414" height="88.642" filterUnits="userSpaceOnUse"><feOffset dy="10" input="SourceAlpha"/><feGaussianBlur stdDeviation="6.5" result="p"/><feFlood flood-color="#369b48"/><feComposite operator="in" in2="p"/><feComposite in="SourceGraphic"/></filter></defs><g transform="translate(-781.761 -916.61)"><path d="M19.714,10.425,6.75,21.1V32.625A1.125,1.125,0,0,0,7.875,33.75l7.879-.02A1.125,1.125,0,0,0,16.874,32.6v-6.73A1.125,1.125,0,0,1,18,24.75h4.5a1.125,1.125,0,0,1,1.125,1.125V32.6a1.125,1.125,0,0,0,1.125,1.129l7.876.022a1.125,1.125,0,0,0,1.125-1.125V21.094L20.789,10.425A.857.857,0,0,0,19.714,10.425Zm20.477,7.257-5.878-4.845V3.1a.844.844,0,0,0-.844-.844H29.531a.844.844,0,0,0-.844.844V8.2l-6.3-5.179a3.375,3.375,0,0,0-4.289,0L.305,17.681A.844.844,0,0,0,.193,18.87l1.793,2.18a.844.844,0,0,0,1.189.115L19.714,7.542a.857.857,0,0,1,1.076,0l16.54,13.622a.844.844,0,0,0,1.188-.112l1.793-2.18a.844.844,0,0,0-.12-1.19Z" transform="translate(801.262 932.498)" fill="url(#a)"/><g transform="matrix(1, 0, 0, 1, 781.76, 916.61)" filter="url(#c)"><path d="M19.714,10.425,6.75,21.1V32.625A1.125,1.125,0,0,0,7.875,33.75l7.879-.02A1.125,1.125,0,0,0,16.874,32.6v-6.73A1.125,1.125,0,0,1,18,24.75h4.5a1.125,1.125,0,0,1,1.125,1.125V32.6a1.125,1.125,0,0,0,1.125,1.129l7.876.022a1.125,1.125,0,0,0,1.125-1.125V21.094L20.789,10.425A.857.857,0,0,0,19.714,10.425Zm20.477,7.257-5.878-4.845V3.1a.844.844,0,0,0-.844-.844H29.531a.844.844,0,0,0-.844.844V8.2l-6.3-5.179a3.375,3.375,0,0,0-4.289,0L.305,17.681A.844.844,0,0,0,.193,18.87l1.793,2.18a.844.844,0,0,0,1.189.115L19.714,7.542a.857.857,0,0,1,1.076,0l16.54,13.622a.844.844,0,0,0,1.188-.112l1.793-2.18a.844.844,0,0,0-.12-1.19Z" transform="translate(19.5 101.89)" fill="url(#b)"/></g><path d="M43.875,29.25H42.75a5.93,5.93,0,0,1-3.944-1.259A3.331,3.331,0,0,0,36.572,27H35.426a3.331,3.331,0,0,0-2.234.991A5.923,5.923,0,0,1,29.25,29.25a5.93,5.93,0,0,1-3.944-1.259A3.331,3.331,0,0,0,23.072,27H21.926a3.331,3.331,0,0,0-2.234.991A5.923,5.923,0,0,1,15.75,29.25a5.93,5.93,0,0,1-3.944-1.259A3.331,3.331,0,0,0,9.572,27H8.426a3.331,3.331,0,0,0-2.234.991A5.923,5.923,0,0,1,2.25,29.25H1.125A1.125,1.125,0,0,0,0,30.375v2.25A1.125,1.125,0,0,0,1.125,33.75H2.25A10.484,10.484,0,0,0,9,31.511a10.48,10.48,0,0,0,6.75,2.239,10.484,10.484,0,0,0,6.75-2.239,10.48,10.48,0,0,0,6.75,2.239A10.484,10.484,0,0,0,36,31.511a10.48,10.48,0,0,0,6.75,2.239h1.125A1.125,1.125,0,0,0,45,32.625v-2.25A1.125,1.125,0,0,0,43.875,29.25ZM15.75,27V20.25h13.5V27a3.852,3.852,0,0,0,2.418-.662,6.078,6.078,0,0,1,2.082-1.271V9a2.25,2.25,0,0,1,4.5,0v1.125a1.125,1.125,0,0,0,1.125,1.125h2.25a1.125,1.125,0,0,0,1.125-1.125V9a6.75,6.75,0,0,0-13.5,0v6.75H15.75V9a2.25,2.25,0,0,1,4.5,0v1.125a1.125,1.125,0,0,0,1.125,1.125h2.25a1.125,1.125,0,0,0,1.125-1.125V9a6.75,6.75,0,0,0-13.5,0V25.066a6.089,6.089,0,0,1,2.082,1.271A3.846,3.846,0,0,0,15.75,27Z" transform="translate(887.262 932.502)" fill="url(#e)"/><g transform="matrix(1, 0, 0, 1, 781.76, 916.61)" filter="url(#g)"><path d="M43.875,29.25H42.75a5.93,5.93,0,0,1-3.944-1.259A3.331,3.331,0,0,0,36.572,27H35.426a3.331,3.331,0,0,0-2.234.991A5.923,5.923,0,0,1,29.25,29.25a5.93,5.93,0,0,1-3.944-1.259A3.331,3.331,0,0,0,23.072,27H21.926a3.331,3.331,0,0,0-2.234.991A5.923,5.923,0,0,1,15.75,29.25a5.93,5.93,0,0,1-3.944-1.259A3.331,3.331,0,0,0,9.572,27H8.426a3.331,3.331,0,0,0-2.234.991A5.923,5.923,0,0,1,2.25,29.25H1.125A1.125,1.125,0,0,0,0,30.375v2.25A1.125,1.125,0,0,0,1.125,33.75H2.25A10.484,10.484,0,0,0,9,31.511a10.48,10.48,0,0,0,6.75,2.239,10.484,10.484,0,0,0,6.75-2.239,10.48,10.48,0,0,0,6.75,2.239A10.484,10.484,0,0,0,36,31.511a10.48,10.48,0,0,0,6.75,2.239h1.125A1.125,1.125,0,0,0,45,32.625v-2.25A1.125,1.125,0,0,0,43.875,29.25ZM15.75,27V20.25h13.5V27a3.852,3.852,0,0,0,2.418-.662,6.078,6.078,0,0,1,2.082-1.271V9a2.25,2.25,0,0,1,4.5,0v1.125a1.125,1.125,0,0,0,1.125,1.125h2.25a1.125,1.125,0,0,0,1.125-1.125V9a6.75,6.75,0,0,0-13.5,0v6.75H15.75V9a2.25,2.25,0,0,1,4.5,0v1.125a1.125,1.125,0,0,0,1.125,1.125h2.25a1.125,1.125,0,0,0,1.125-1.125V9a6.75,6.75,0,0,0-13.5,0V25.066a6.089,6.089,0,0,1,2.082,1.271A3.846,3.846,0,0,0,15.75,27Z" transform="translate(105.5 101.89)" fill="url(#f)"/></g><path d="M3,36.8H51.826v4.883H3ZM31.905,14.311a5.037,5.037,0,0,0,.391-1.929,4.883,4.883,0,1,0-9.765,0,5.037,5.037,0,0,0,.391,1.929A22,22,0,0,0,5.441,34.354H49.385A22,22,0,0,0,31.905,14.311Z" transform="translate(994.262 924.573)" fill="url(#i)"/><g transform="matrix(1, 0, 0, 1, 781.76, 916.61)" filter="url(#k)"><path d="M3,36.8H51.826v4.883H3ZM31.905,14.311a5.037,5.037,0,0,0,.391-1.929,4.883,4.883,0,1,0-9.765,0,5.037,5.037,0,0,0,.391,1.929A22,22,0,0,0,5.441,34.354H49.385A22,22,0,0,0,31.905,14.311Z" transform="translate(212.5 93.96)" fill="url(#j)"/></g><path d="M13.957,18.608a4.652,4.652,0,1,0-4.652-4.652A4.653,4.653,0,0,0,13.957,18.608Zm10.854-4.652A4.652,4.652,0,1,0,29.464,9.3,4.653,4.653,0,0,0,24.812,13.956ZM21.71,9.3a4.652,4.652,0,1,0-4.652-4.652A4.653,4.653,0,0,0,21.71,9.3ZM20.14,22.785a1.518,1.518,0,0,0-2.307-1.328A25.411,25.411,0,0,1,7.3,24.965a1.393,1.393,0,0,0-1.124,1.958A24.007,24.007,0,0,1,7.6,31.168a2.867,2.867,0,0,1-1.958,3.4,23.041,23.041,0,0,1-4.39.882A1.4,1.4,0,0,0,.118,37.409,25.237,25.237,0,0,1,2.347,47.847,1.777,1.777,0,0,0,5.022,49.4a25.285,25.285,0,0,1,10.157-3.285A1.393,1.393,0,0,0,16.3,44.155a24.007,24.007,0,0,1-1.425-4.245,2.867,2.867,0,0,1,1.958-3.4,23.041,23.041,0,0,1,4.39-.882,1.4,1.4,0,0,0,1.134-1.958A25.711,25.711,0,0,1,20.14,22.785ZM42.16,35.432a24.818,24.818,0,0,1-4.39-.882,2.867,2.867,0,0,1-1.958-3.4A24.274,24.274,0,0,1,37.236,26.9a1.393,1.393,0,0,0-1.124-1.958,25.411,25.411,0,0,1-10.535-3.508,1.524,1.524,0,0,0-2.307,1.328c0,.155-.019.31-.019.475a22.4,22.4,0,0,0,1.929,9.11,4.461,4.461,0,0,1-.058,3.77c.475.116.959.213,1.434.359a2.867,2.867,0,0,1,1.958,3.4,24.274,24.274,0,0,1-1.425,4.245,1.393,1.393,0,0,0,1.124,1.958A25.285,25.285,0,0,1,38.37,49.369a1.774,1.774,0,0,0,2.675-1.551A25.358,25.358,0,0,1,43.274,37.38,1.375,1.375,0,0,0,42.16,35.432Z" transform="translate(1091.59 916.61)" fill="url(#m)"/><g transform="matrix(1, 0, 0, 1, 781.76, 916.61)" filter="url(#o)"><path d="M13.957,18.608a4.652,4.652,0,1,0-4.652-4.652A4.653,4.653,0,0,0,13.957,18.608Zm10.854-4.652A4.652,4.652,0,1,0,29.464,9.3,4.653,4.653,0,0,0,24.812,13.956ZM21.71,9.3a4.652,4.652,0,1,0-4.652-4.652A4.653,4.653,0,0,0,21.71,9.3ZM20.14,22.785a1.518,1.518,0,0,0-2.307-1.328A25.411,25.411,0,0,1,7.3,24.965a1.393,1.393,0,0,0-1.124,1.958A24.007,24.007,0,0,1,7.6,31.168a2.867,2.867,0,0,1-1.958,3.4,23.041,23.041,0,0,1-4.39.882A1.4,1.4,0,0,0,.118,37.409,25.237,25.237,0,0,1,2.347,47.847,1.777,1.777,0,0,0,5.022,49.4a25.285,25.285,0,0,1,10.157-3.285A1.393,1.393,0,0,0,16.3,44.155a24.007,24.007,0,0,1-1.425-4.245,2.867,2.867,0,0,1,1.958-3.4,23.041,23.041,0,0,1,4.39-.882,1.4,1.4,0,0,0,1.134-1.958A25.711,25.711,0,0,1,20.14,22.785ZM42.16,35.432a24.818,24.818,0,0,1-4.39-.882,2.867,2.867,0,0,1-1.958-3.4A24.274,24.274,0,0,1,37.236,26.9a1.393,1.393,0,0,0-1.124-1.958,25.411,25.411,0,0,1-10.535-3.508,1.524,1.524,0,0,0-2.307,1.328c0,.155-.019.31-.019.475a22.4,22.4,0,0,0,1.929,9.11,4.461,4.461,0,0,1-.058,3.77c.475.116.959.213,1.434.359a2.867,2.867,0,0,1,1.958,3.4,24.274,24.274,0,0,1-1.425,4.245,1.393,1.393,0,0,0,1.124,1.958A25.285,25.285,0,0,1,38.37,49.369a1.774,1.774,0,0,0,2.675-1.551A25.358,25.358,0,0,1,43.274,37.38,1.375,1.375,0,0,0,42.16,35.432Z" transform="translate(309.83 86)" fill="url(#n)"/></g></g></svg>