<svg xmlns="http://www.w3.org/2000/svg" width="426.548" height="44.898" viewBox="0 0 426.548 44.898"><defs><style>.a,.b,.c{fill:#ddd3c5;}.b{fill-rule:evenodd;}.c{mix-blend-mode:multiply;isolation:isolate;}</style></defs><g transform="translate(599.897 297.755)"><path class="a" d="M19.381,11.679a9.936,9.936,0,1,0,9.936,9.936A9.92,9.92,0,0,0,19.381,11.679Zm0,16.4a6.46,6.46,0,1,1,6.46-6.46,6.471,6.471,0,0,1-6.46,6.46Zm12.66-16.8a2.318,2.318,0,1,1-2.318-2.318A2.312,2.312,0,0,1,32.041,11.272Zm6.581,2.352c-.147-3.1-.856-5.854-3.13-8.12s-5.016-2.975-8.12-3.13c-3.2-.182-12.79-.182-15.989,0-3.1.147-5.846.856-8.12,3.122S.287,10.511.131,13.616c-.182,3.2-.182,12.79,0,15.989.147,3.1.856,5.854,3.13,8.12s5.016,2.975,8.12,3.13c3.2.182,12.79.182,15.989,0,3.1-.147,5.854-.856,8.12-3.13s2.975-5.016,3.13-8.12c.182-3.2.182-12.781,0-15.981ZM34.488,33.038A6.54,6.54,0,0,1,30.8,36.722c-2.551,1.012-8.6.778-11.423.778s-8.881.225-11.423-.778a6.54,6.54,0,0,1-3.684-3.684c-1.012-2.551-.778-8.6-.778-11.423s-.225-8.881.778-11.423A6.54,6.54,0,0,1,7.957,6.507c2.551-1.012,8.6-.778,11.423-.778S28.262,5.5,30.8,6.507a6.54,6.54,0,0,1,3.684,3.684c1.012,2.551.778,8.6.778,11.423S35.5,30.5,34.488,33.038Z" transform="translate(-517.4 -296.92)"/><path class="b" d="M3.064,30.294a12,12,0,0,1,4.049-9.055c1.031-.957,2.5-2.724,4.049-2.5s2.8,1.988,3.607,3.239,3.754,5.447,1.62,7.95c-1.031,1.178-2.576,1.767-3.533,3.018a4.417,4.417,0,0,0,0,4.343,26.427,26.427,0,0,0,6.478,7.8,6.036,6.036,0,0,0,4.2,1.767c1.62,0,2.871-2.061,4.049-3.018,3.018-2.429,6.331.883,8.539,2.871a4.932,4.932,0,0,1,2.135,3.681c0,1.472-2.061,2.8-3.092,3.681A12.441,12.441,0,0,1,25.148,56.5a24,24,0,0,1-10.38-5.889,51.015,51.015,0,0,1-8.024-9.423,24.734,24.734,0,0,1-2.577-5.006A23.851,23.851,0,0,1,2.99,30.294C3.064,28.159,3.064,31.324,3.064,30.294Z" transform="translate(-426.12 -311.223)"/><g transform="translate(-332.357 -297.755)"><g transform="translate(0)"><path class="a" d="M41.125,31.91c-.224-.539-.45-1.124-.674-1.618-.36-.806-.72-1.573-1.036-2.292l-.045-.045c-3.1-6.742-6.426-13.572-9.932-20.313l-.135-.27q-.554-1.049-1.078-2.113a12.98,12.98,0,0,0-1.618-2.472A7.25,7.25,0,0,0,20.9,0,7.54,7.54,0,0,0,15.15,2.7a15.283,15.283,0,0,0-1.619,2.472q-.526,1.063-1.078,2.113l-.135.271c-3.461,6.74-6.831,13.574-9.932,20.313l-.045.089c-.314.72-.674,1.484-1.036,2.292q-.337.743-.673,1.618a10.119,10.119,0,0,0-.537,4.854,9.551,9.551,0,0,0,5.843,7.461,9.222,9.222,0,0,0,3.64.72,10.125,10.125,0,0,0,1.169-.09,11.875,11.875,0,0,0,4.494-1.527,22.818,22.818,0,0,0,5.573-4.674,23.624,23.624,0,0,0,5.573,4.674,11.881,11.881,0,0,0,4.494,1.527,9.99,9.99,0,0,0,1.169.09,9.059,9.059,0,0,0,3.64-.72,9.531,9.531,0,0,0,5.843-7.461,8.513,8.513,0,0,0-.407-4.808ZM20.856,34.249a22.162,22.162,0,0,1-4.539-8.359,7.25,7.25,0,0,1-.135-2.742,4.355,4.355,0,0,1,.72-1.887,4.767,4.767,0,0,1,3.955-1.978,4.6,4.6,0,0,1,3.955,1.978,4.375,4.375,0,0,1,.72,1.887,7.238,7.238,0,0,1-.135,2.742A22.923,22.923,0,0,1,20.856,34.249Zm17.931,2.112h0A6.68,6.68,0,0,1,34.7,41.619a6.8,6.8,0,0,1-3.416.449A8.856,8.856,0,0,1,27.87,40.9a21,21,0,0,1-5.123-4.36c2.966-3.64,4.764-6.965,5.438-9.932a11.232,11.232,0,0,0,.224-3.82A7.292,7.292,0,0,0,27.2,19.732a7.575,7.575,0,0,0-6.338-3.191,7.69,7.69,0,0,0-6.336,3.191,7.294,7.294,0,0,0-1.213,3.057,9.331,9.331,0,0,0,.224,3.82c.674,2.966,2.517,6.336,5.437,9.977a20.193,20.193,0,0,1-5.123,4.36,8.787,8.787,0,0,1-3.415,1.168,7.191,7.191,0,0,1-3.416-.449A6.671,6.671,0,0,1,2.93,36.405a7.461,7.461,0,0,1,.4-3.5c.134-.45.36-.9.584-1.439.315-.72.673-1.484,1.036-2.245L5,29.127c3.1-6.7,6.426-13.527,9.887-20.179l.135-.271c.36-.673.72-1.392,1.079-2.067a9.837,9.837,0,0,1,1.258-1.978,4.715,4.715,0,0,1,7.184,0A9.919,9.919,0,0,1,25.8,6.607c.36.675.72,1.394,1.082,2.067l.135.271q5.111,10.016,9.843,20.224v.045c.36.72.675,1.528,1.036,2.248.224.538.45.987.584,1.439a7.638,7.638,0,0,1,.307,3.458Z" transform="translate(0)"/></g></g><path class="a" d="M127.809,28.757a.783.783,0,0,0-1.287,0L112.213,46.881c-.355.45-.179.815.4.815h7.744v7.278c0,3.99-2.55,8.838-10.083,8.838a24.038,24.038,0,0,1-11.718-3.134c-.486-.307-.694-.155-.454.367,2.226,4.848,8.2,11.6,17.111,11.6,11.484,0,18.715-8.377,18.715-17.675V47.7h7.8c.574,0,.751-.365.4-.815Z" transform="translate(-315.65 -326.175)"/><path class="c" d="M30.293,3H24.9a9,9,0,0,0-9,9v5.4H10.5v7.2h5.4v14.4h7.2v-14.4h5.4l1.8-7.2H23.1V12a1.8,1.8,0,0,1,1.8-1.8h5.4Z" transform="translate(-610.397 -296.634)"/></g></svg>