<svg xmlns="http://www.w3.org/2000/svg" width="131.761" height="36.117" viewBox="0 0 131.761 36.117"><g transform="translate(-891.501 -839.047)"><g transform="translate(891.501 839.07)"><path d="M180.961,17.5H160.508a3.007,3.007,0,0,0-3.008,3.008V50.586a3.007,3.007,0,0,0,3.008,3.008h21.656a1.8,1.8,0,0,0,1.8-1.8V20.508a3.007,3.007,0,0,0-3.008-3.008Zm1.2,34.891H160.508a1.8,1.8,0,1,1,0-3.609h20.453a3.008,3.008,0,0,0,1.8-.6v1.8H162.313a.6.6,0,0,0,0,1.2h20.453v.6a.6.6,0,0,1-.6.6Zm-1.2-4.813H161.109V33.141a.6.6,0,1,0-1.2,0v14.5a2.909,2.909,0,0,0-1.2.541V20.508a1.8,1.8,0,0,1,1.2-1.7v9.517a.6.6,0,0,0,1.2,0V18.7h19.852a1.8,1.8,0,0,1,1.8,1.8V45.774a1.8,1.8,0,0,1-1.8,1.8Z" transform="translate(-157.5 -17.5)"/></g><g transform="translate(937.628 839.047)"><path d="M241.9,28H229.934a2.8,2.8,0,0,0-2.8,2.78V61.267a2.8,2.8,0,0,0,2.8,2.78H241.9a2.8,2.8,0,0,0,2.8-2.78V30.78A2.8,2.8,0,0,0,241.9,28Zm2,33.268a2,2,0,0,1-2,2H229.934a2,2,0,0,1-2-2V30.78a2,2,0,0,1,2-2H241.9a2,2,0,0,1,2,2Zm-1.178-28.061H229.109a.4.4,0,0,0-.4.4V58.44a.4.4,0,0,0,.4.4h13.618a.4.4,0,0,0,.4-.4V33.607a.4.4,0,0,0-.4-.4Zm-.4,24.833H229.509V34.008h12.817Zm-6.409,1.326a1.726,1.726,0,1,0,1.219.5,1.726,1.726,0,0,0-1.219-.5Zm0,2.68a.953.953,0,1,1,.953-.953.953.953,0,0,1-.953.953ZM232.2,45.263a.4.4,0,0,1,.188-.513l6.729-3.132a.4.4,0,0,1,.328.7l-6.737,3.132a.38.38,0,0,1-.508-.188Zm0,2.271a.4.4,0,0,1,.188-.513l6.729-3.144a.387.387,0,0,1,.328.7l-6.737,3.14a.343.343,0,0,1-.164.04.4.4,0,0,1-.344-.224Zm0,2.267a.4.4,0,0,1,.184-.513l6.733-3.14a.4.4,0,1,1,.328.7l-6.737,3.144a.38.38,0,0,1-.508-.188Zm1.71-18.7a.4.4,0,0,1,.4-.4h3.2a.4.4,0,1,1,0,.769h-3.2a.4.4,0,0,1-.4-.369Z" transform="translate(-227.13 -28)"/></g><g transform="translate(974.861 839.07)"><path d="M139.461,87.883H92.7a.82.82,0,0,0-.82.82v34.383a.82.82,0,0,0,.82.82h46.76a.82.82,0,0,0,.82-.82V88.7A.82.82,0,0,0,139.461,87.883Zm-2.216,1.641-21.164,18.161L94.916,89.524ZM93.52,122.266V90.488l22.026,18.9h0a.821.821,0,0,0,1.069,0l22.026-18.9v31.777Zm22.586-25.1a7.942,7.942,0,0,0-3.174.646.82.82,0,0,1-.651-1.506,9.769,9.769,0,0,1,7.594-.025.82.82,0,1,1-.641,1.51,7.955,7.955,0,0,0-3.128-.626Zm.4-2.871a11.364,11.364,0,0,0-6.171,1.767.82.82,0,0,1-.887-1.38,13,13,0,0,1,7.058-2.028,13.206,13.206,0,0,1,6.148,1.5.82.82,0,1,1-.766,1.451A11.561,11.561,0,0,0,116.5,94.3Zm18.649,21.085h-7.588a.82.82,0,0,0-.82.82v3.23a.82.82,0,0,0,.82.82h7.588a.82.82,0,0,0,.82-.82V116.2A.82.82,0,0,0,135.154,115.38Zm-.82,3.23h-5.948v-1.589h5.948Z" transform="translate(-91.88 -87.883)"/></g></g></svg>